JetBrainsMoro-ExtraBoldItalic.ufo
<glyph name="dollar" format="2">
  <advance width="600"/>
  <unicode hex="0024"/>
  <outline>
    <contour>
      <point x="198" y="-140" type="line"/>
      <point x="263" y="-140" type="line"/>
      <point x="284" y="-9" type="line"/>
      <point x="422" y="1"/>
      <point x="522" y="85"/>
      <point x="542" y="206" type="curve" smooth="yes"/>
      <point x="560" y="324"/>
      <point x="505" y="402"/>
      <point x="380" y="432" type="curve" smooth="yes"/>
      <point x="354" y="438" type="line"/>
      <point x="381" y="607" type="line"/>
      <point x="420" y="598"/>
      <point x="438" y="572"/>
      <point x="432" y="535" type="curve"/>
      <point x="582" y="535" type="line"/>
      <point x="600" y="651"/>
      <point x="531" y="728"/>
      <point x="402" y="739" type="curve"/>
      <point x="423" y="870" type="line"/>
      <point x="358" y="870" type="line"/>
      <point x="337" y="738" type="line"/>
      <point x="207" y="727"/>
      <point x="115" y="647"/>
      <point x="97" y="529" type="curve" smooth="yes"/>
      <point x="79" y="414"/>
      <point x="137" y="331"/>
      <point x="257" y="302" type="curve" smooth="yes"/>
      <point x="267" y="299" type="line"/>
      <point x="240" y="124" type="line"/>
      <point x="199" y="134"/>
      <point x="179" y="162"/>
      <point x="185" y="200" type="curve"/>
      <point x="35" y="200" type="line"/>
      <point x="16" y="82"/>
      <point x="87" y="3"/>
      <point x="219" y="-8" type="curve"/>
    </contour>
    <contour>
      <point x="304" y="122" type="curve"/>
      <point x="341" y="352" type="line"/>
      <point x="272" y="290" type="line"/>
      <point x="356" y="295"/>
      <point x="400" y="256"/>
      <point x="391" y="199" type="curve" smooth="yes"/>
      <point x="384" y="156"/>
      <point x="352" y="129"/>
    </contour>
    <contour>
      <point x="281" y="387" type="line"/>
      <point x="345" y="447" type="line"/>
      <point x="276" y="443"/>
      <point x="239" y="481"/>
      <point x="248" y="535" type="curve" smooth="yes"/>
      <point x="254" y="573"/>
      <point x="278" y="598"/>
      <point x="316" y="607" type="curve"/>
    </contour>
  </outline>
</glyph>
<glyph name="ampersand" format="2">
  <advance width="600"/>
  <unicode hex="0026"/>
  <outline>
    <contour>
      <point x="189" y="-10" type="curve" smooth="yes"/>
      <point x="255" y="-10"/>
      <point x="315" y="11"/>
      <point x="365" y="51" type="curve"/>
      <point x="393" y="0" type="line"/>
      <point x="536" y="0" type="line"/>
      <point x="453" y="155" type="line"/>
      <point x="587" y="360" type="line"/>
      <point x="447" y="360" type="line"/>
      <point x="390" y="271" type="line"/>
      <point x="301" y="436" type="line" smooth="yes"/>
      <point x="277" y="480"/>
      <point x="263" y="518"/>
      <point x="268" y="550" type="curve" smooth="yes"/>
      <point x="275" y="592"/>
      <point x="307" y="620"/>
      <point x="349" y="620" type="curve" smooth="yes"/>
      <point x="391" y="620"/>
      <point x="415" y="592"/>
      <point x="408" y="550" type="curve"/>
      <point x="543" y="550" type="line"/>
      <point x="561" y="664"/>
      <point x="491" y="740"/>
      <point x="368" y="740" type="curve" smooth="yes"/>
      <point x="248" y="740"/>
      <point x="157" y="668"/>
      <point x="140" y="565" type="curve" smooth="yes"/>
      <point x="131" y="507"/>
      <point x="147" y="449"/>
      <point x="180" y="390" type="curve"/>
      <point x="205" y="443" type="line"/>
      <point x="112" y="434"/>
      <point x="48" y="367"/>
      <point x="32" y="265" type="curve" smooth="yes"/>
      <point x="21" y="195" type="line" smooth="yes"/>
      <point x="0" y="66"/>
      <point x="61" y="-10"/>
    </contour>
    <contour>
      <point x="222" y="110" type="curve" smooth="yes"/>
      <point x="177" y="110"/>
      <point x="152" y="140"/>
      <point x="161" y="195" type="curve" smooth="yes"/>
      <point x="172" y="265" type="line" smooth="yes"/>
      <point x="177" y="298"/>
      <point x="190" y="321"/>
      <point x="209" y="335" type="curve"/>
      <point x="310" y="151" type="line"/>
      <point x="286" y="125"/>
      <point x="255" y="110"/>
    </contour>
  </outline>
</glyph>
<glyph name="parenleft" format="2">
  <advance width="600"/>
  <unicode hex="0028"/>
  <outline>
    <contour>
      <point x="421" y="-125" type="curve"/>
      <point x="445" y="27" type="line"/>
      <point x="338" y="54"/>
      <point x="284" y="144"/>
      <point x="303" y="264" type="curve" smooth="yes"/>
      <point x="333" y="455" type="line" smooth="yes"/>
      <point x="353" y="578"/>
      <point x="434" y="667"/>
      <point x="551" y="695" type="curve"/>
      <point x="575" y="845" type="line"/>
      <point x="359" y="789"/>
      <point x="213" y="645"/>
      <point x="183" y="455" type="curve" smooth="yes"/>
      <point x="153" y="264" type="line" smooth="yes"/>
      <point x="122" y="71"/>
      <point x="218" y="-68"/>
    </contour>
  </outline>
</glyph>
<glyph name="plus" format="2">
  <advance width="600"/>
  <unicode hex="002B"/>
  <outline>
    <contour>
      <point x="195" y="90" type="line"/>
      <point x="345" y="90" type="line"/>
      <point x="372" y="260" type="line"/>
      <point x="542" y="260" type="line"/>
      <point x="564" y="400" type="line"/>
      <point x="394" y="400" type="line"/>
      <point x="421" y="570" type="line"/>
      <point x="271" y="570" type="line"/>
      <point x="244" y="400" type="line"/>
      <point x="74" y="400" type="line"/>
      <point x="52" y="260" type="line"/>
      <point x="222" y="260" type="line"/>
    </contour>
  </outline>
</glyph>
<glyph name="two" format="2">
  <advance width="600"/>
  <unicode hex="0032"/>
  <outline>
    <contour>
      <point x="26" y="0" type="line"/>
      <point x="498" y="0" type="line"/>
      <point x="519" y="135" type="line"/>
      <point x="237" y="135" type="line"/>
      <point x="418" y="286" type="line" smooth="yes"/>
      <point x="515" y="367"/>
      <point x="559" y="438"/>
      <point x="573" y="521" type="curve" smooth="yes"/>
      <point x="594" y="656"/>
      <point x="513" y="740"/>
      <point x="370" y="740" type="curve" smooth="yes"/>
      <point x="220" y="740"/>
      <point x="109" y="648"/>
      <point x="86" y="505" type="curve"/>
      <point x="236" y="505" type="line"/>
      <point x="246" y="568"/>
      <point x="288" y="605"/>
      <point x="346" y="605" type="curve" smooth="yes"/>
      <point x="402" y="605"/>
      <point x="430" y="570"/>
      <point x="420" y="507" type="curve" smooth="yes"/>
      <point x="414" y="465"/>
      <point x="388" y="426"/>
      <point x="345" y="389" type="curve" smooth="yes"/>
      <point x="47" y="132" type="line"/>
    </contour>
  </outline>
</glyph>
<glyph name="three" format="2">
  <advance width="600"/>
  <unicode hex="0033"/>
  <outline>
    <contour>
      <point x="250" y="-10" type="curve" smooth="yes"/>
      <point x="403" y="-10"/>
      <point x="508" y="69"/>
      <point x="528" y="200" type="curve" smooth="yes"/>
      <point x="537" y="259" type="line" smooth="yes"/>
      <point x="557" y="389"/>
      <point x="477" y="471"/>
      <point x="327" y="471" type="curve"/>
      <point x="316" y="399" type="line"/>
      <point x="565" y="614" type="line"/>
      <point x="584" y="730" type="line"/>
      <point x="159" y="730" type="line"/>
      <point x="139" y="605" type="line"/>
      <point x="402" y="605" type="line"/>
      <point x="235" y="460" type="line"/>
      <point x="216" y="344" type="line"/>
      <point x="306" y="344" type="line" smooth="yes"/>
      <point x="366" y="344"/>
      <point x="396" y="313"/>
      <point x="387" y="258" type="curve" smooth="yes"/>
      <point x="378" y="200" type="line" smooth="yes"/>
      <point x="369" y="145"/>
      <point x="331" y="115"/>
      <point x="270" y="115" type="curve" smooth="yes"/>
      <point x="210" y="115"/>
      <point x="181" y="146"/>
      <point x="190" y="200" type="curve"/>
      <point x="40" y="200" type="line"/>
      <point x="19" y="71"/>
      <point x="100" y="-10"/>
    </contour>
  </outline>
</glyph>
<glyph name="greater" format="2">
  <advance width="600"/>
  <unicode hex="003E"/>
  <outline>
    <contour>
      <point x="34" y="49" type="line"/>
      <point x="527" y="258" type="line"/>
      <point x="550" y="401" type="line"/>
      <point x="122" y="609" type="line"/>
      <point x="101" y="476" type="line"/>
      <point x="358" y="355" type="line" smooth="yes"/>
      <point x="383" y="343"/>
      <point x="415" y="336"/>
      <point x="431" y="333" type="curve"/>
      <point x="414" y="330"/>
      <point x="379" y="322"/>
      <point x="350" y="310" type="curve" smooth="yes"/>
      <point x="55" y="189" type="line"/>
    </contour>
  </outline>
</glyph>
<glyph name="J" format="2">
  <advance width="600"/>
  <unicode hex="004A"/>
  <anchor x="256" y="0" name="bottom"/>
  <anchor x="504" y="730" name="top"/>
  <outline>
    <contour>
      <point x="224" y="-10" type="curve" smooth="yes"/>
      <point x="383" y="-10"/>
      <point x="487" y="73"/>
      <point x="511" y="219" type="curve" smooth="yes"/>
      <point x="592" y="730" type="line"/>
      <point x="237" y="730" type="line"/>
      <point x="215" y="595" type="line"/>
      <point x="420" y="595" type="line"/>
      <point x="361" y="219" type="line" smooth="yes"/>
      <point x="351" y="158"/>
      <point x="306" y="120"/>
      <point x="245" y="120" type="curve" smooth="yes"/>
      <point x="183" y="120"/>
      <point x="151" y="159"/>
      <point x="161" y="221" type="curve"/>
      <point x="11" y="221" type="line"/>
      <point x="-11" y="79"/>
      <point x="70" y="-10"/>
    </contour>
  </outline>
</glyph>
<glyph name="L" format="2">
  <advance width="600"/>
  <unicode hex="004C"/>
  <anchor x="296" y="0" name="bottom"/>
  <anchor x="314" y="365" name="center"/>
  <anchor x="262" y="730" name="top"/>
  <anchor x="652" y="730" name="topright"/>
  <outline>
    <contour>
      <point x="71" y="0" type="line"/>
      <point x="516" y="0" type="line"/>
      <point x="538" y="140" type="line"/>
      <point x="243" y="140" type="line"/>
      <point x="337" y="730" type="line"/>
      <point x="187" y="730" type="line"/>
    </contour>
  </outline>
</glyph>
<glyph name="N" format="2">
  <advance width="600"/>
  <unicode hex="004E"/>
  <anchor x="256" y="0" name="bottom"/>
  <anchor x="372" y="730" name="top"/>
  <outline>
    <contour>
      <point x="16" y="0" type="line"/>
      <point x="148" y="0" type="line"/>
      <point x="199" y="320" type="line" smooth="yes"/>
      <point x="210" y="389"/>
      <point x="219" y="501"/>
      <point x="223" y="565" type="curve"/>
      <point x="323" y="0" type="line"/>
      <point x="496" y="0" type="line"/>
      <point x="612" y="730" type="line"/>
      <point x="480" y="730" type="line"/>
      <point x="432" y="430" type="line" smooth="yes"/>
      <point x="421" y="361"/>
      <point x="411" y="238"/>
      <point x="406" y="165" type="curve"/>
      <point x="305" y="730" type="line"/>
      <point x="132" y="730" type="line"/>
    </contour>
  </outline>
</glyph>
<glyph name="W" format="2">
  <advance width="600"/>
  <unicode hex="0057"/>
  <anchor x="256" y="0" name="bottom"/>
  <anchor x="372" y="730" name="top"/>
  <outline>
    <contour>
      <point x="34" y="0" type="line"/>
      <point x="191" y="0" type="line"/>
      <point x="321" y="485" type="line" smooth="yes"/>
      <point x="330" y="519"/>
      <point x="346" y="594"/>
      <point x="356" y="640" type="curve"/>
      <point x="352" y="594"/>
      <point x="346" y="519"/>
      <point x="344" y="485" type="curve" smooth="yes"/>
      <point x="317" y="0" type="line"/>
      <point x="473" y="0" type="line"/>
      <point x="662" y="730" type="line"/>
      <point x="538" y="730" type="line"/>
      <point x="426" y="242" type="line" smooth="yes"/>
      <point x="419" y="213"/>
      <point x="406" y="144"/>
      <point x="398" y="100" type="curve"/>
      <point x="400" y="144"/>
      <point x="402" y="213"/>
      <point x="404" y="242" type="curve" smooth="yes"/>
      <point x="430" y="730" type="line"/>
      <point x="313" y="730" type="line"/>
      <point x="181" y="242" type="line" smooth="yes"/>
      <point x="173" y="213"/>
      <point x="156" y="144"/>
      <point x="145" y="100" type="curve"/>
      <point x="151" y="144"/>
      <point x="159" y="213"/>
      <point x="161" y="242" type="curve" smooth="yes"/>
      <point x="202" y="730" type="line"/>
      <point x="82" y="730" type="line"/>
    </contour>
  </outline>
</glyph>
<glyph name="Z" format="2">
  <advance width="600"/>
  <unicode hex="005A"/>
  <anchor x="256" y="0" name="bottom"/>
  <anchor x="314" y="365" name="center"/>
  <anchor x="372" y="730" name="top"/>
  <outline>
    <contour>
      <point x="32" y="0" type="line"/>
      <point x="481" y="0" type="line"/>
      <point x="503" y="140" type="line"/>
      <point x="228" y="140" type="line"/>
      <point x="563" y="590" type="line"/>
      <point x="586" y="730" type="line"/>
      <point x="155" y="730" type="line"/>
      <point x="132" y="590" type="line"/>
      <point x="388" y="590" type="line"/>
      <point x="54" y="140" type="line"/>
    </contour>
  </outline>
</glyph>
<glyph name="n" format="2">
  <advance width="600"/>
  <unicode hex="006E"/>
  <anchor x="256" y="0" name="bottom"/>
  <anchor x="344" y="550" name="top"/>
  <outline>
    <contour>
      <point x="22" y="0" type="line"/>
      <point x="172" y="0" type="line"/>
      <point x="226" y="340" type="line" smooth="yes"/>
      <point x="235" y="397"/>
      <point x="271" y="430"/>
      <point x="324" y="430" type="curve" smooth="yes"/>
      <point x="378" y="430"/>
      <point x="405" y="397"/>
      <point x="396" y="340" type="curve" smooth="yes"/>
      <point x="342" y="0" type="line"/>
      <point x="492" y="0" type="line"/>
      <point x="548" y="355" type="line" smooth="yes"/>
      <point x="568" y="479"/>
      <point x="511" y="560"/>
      <point x="404" y="560" type="curve" smooth="yes"/>
      <point x="313" y="560"/>
      <point x="247" y="503"/>
      <point x="232" y="410" type="curve"/>
      <point x="281" y="445" type="line"/>
      <point x="237" y="445" type="line"/>
      <point x="254" y="550" type="line"/>
      <point x="109" y="550" type="line"/>
    </contour>
  </outline>
</glyph>
<glyph name="s" format="2">
  <advance width="600"/>
  <unicode hex="0073"/>
  <anchor x="255" y="0" name="bottom"/>
  <anchor x="345" y="550" name="top"/>
  <outline>
    <contour>
      <point x="231" y="-10" type="curve" smooth="yes"/>
      <point x="275" y="-10" type="line" smooth="yes"/>
      <point x="425" y="-10"/>
      <point x="514" y="52"/>
      <point x="532" y="164" type="curve" smooth="yes"/>
      <point x="548" y="267"/>
      <point x="488" y="311"/>
      <point x="352" y="329" type="curve" smooth="yes"/>
      <point x="284" y="338" type="line" smooth="yes"/>
      <point x="239" y="344"/>
      <point x="224" y="362"/>
      <point x="229" y="393" type="curve" smooth="yes"/>
      <point x="234" y="426"/>
      <point x="258" y="443"/>
      <point x="308" y="443" type="curve" smooth="yes"/>
      <point x="346" y="443" type="line" smooth="yes"/>
      <point x="389" y="443"/>
      <point x="414" y="425"/>
      <point x="410" y="398" type="curve"/>
      <point x="560" y="398" type="line"/>
      <point x="576" y="496"/>
      <point x="499" y="560"/>
      <point x="365" y="560" type="curve" smooth="yes"/>
      <point x="327" y="560" type="line" smooth="yes"/>
      <point x="186" y="560"/>
      <point x="101" y="499"/>
      <point x="84" y="392" type="curve" smooth="yes"/>
      <point x="68" y="290"/>
      <point x="123" y="249"/>
      <point x="257" y="232" type="curve" smooth="yes"/>
      <point x="320" y="224" type="line" smooth="yes"/>
      <point x="372" y="217"/>
      <point x="392" y="197"/>
      <point x="387" y="164" type="curve" smooth="yes"/>
      <point x="381" y="128"/>
      <point x="349" y="107"/>
      <point x="294" y="107" type="curve" smooth="yes"/>
      <point x="250" y="107" type="line" smooth="yes"/>
      <point x="204" y="107"/>
      <point x="176" y="128"/>
      <point x="181" y="160" type="curve"/>
      <point x="31" y="160" type="line"/>
      <point x="15" y="58"/>
      <point x="95" y="-10"/>
    </contour>
  </outline>
</glyph>
<glyph name="w" format="2">
  <advance width="600"/>
  <unicode hex="0077"/>
  <anchor x="256" y="0" name="bottom"/>
  <anchor x="343" y="550" name="top"/>
  <outline>
    <contour>
      <point x="46" y="0" type="line"/>
      <point x="197" y="0" type="line"/>
      <point x="286" y="310" type="line" smooth="yes"/>
      <point x="297" y="347"/>
      <point x="313" y="407"/>
      <point x="324" y="442" type="curve"/>
      <point x="322" y="407"/>
      <point x="322" y="347"/>
      <point x="321" y="310" type="curve" smooth="yes"/>
      <point x="315" y="0" type="line"/>
      <point x="465" y="0" type="line"/>
      <point x="633" y="550" type="line"/>
      <point x="516" y="550" type="line"/>
      <point x="427" y="250" type="line" smooth="yes"/>
      <point x="414" y="207"/>
      <point x="397" y="142"/>
      <point x="389" y="105" type="curve"/>
      <point x="390" y="141"/>
      <point x="393" y="205"/>
      <point x="393" y="250" type="curve" smooth="yes"/>
      <point x="396" y="550" type="line"/>
      <point x="290" y="550" type="line"/>
      <point x="197" y="250" type="line" smooth="yes"/>
      <point x="183" y="205"/>
      <point x="166" y="142"/>
      <point x="157" y="106" type="curve"/>
      <point x="159" y="142"/>
      <point x="163" y="206"/>
      <point x="164" y="250" type="curve" smooth="yes"/>
      <point x="171" y="550" type="line"/>
      <point x="53" y="550" type="line"/>
    </contour>
  </outline>
</glyph>
<glyph name="sterling" format="2">
  <advance width="600"/>
  <unicode hex="00A3"/>
  <outline>
    <contour>
      <point x="31" y="0" type="line"/>
      <point x="491" y="0" type="line"/>
      <point x="513" y="140" type="line"/>
      <point x="143" y="140" type="line"/>
      <point x="210" y="150"/>
      <point x="302" y="196"/>
      <point x="316" y="283" type="curve" smooth="yes"/>
      <point x="341" y="442"/>
      <point x="230" y="449"/>
      <point x="243" y="532" type="curve" smooth="yes"/>
      <point x="250" y="575"/>
      <point x="291" y="610"/>
      <point x="349" y="610" type="curve" smooth="yes"/>
      <point x="405" y="610"/>
      <point x="435" y="574"/>
      <point x="433" y="530" type="curve"/>
      <point x="583" y="530" type="line"/>
      <point x="594" y="654"/>
      <point x="515" y="740"/>
      <point x="373" y="740" type="curve" smooth="yes"/>
      <point x="222" y="740"/>
      <point x="112" y="652"/>
      <point x="95" y="540" type="curve" smooth="yes"/>
      <point x="74" y="413"/>
      <point x="205" y="408"/>
      <point x="183" y="274" type="curve" smooth="yes"/>
      <point x="175" y="224"/>
      <point x="107" y="180"/>
      <point x="56" y="160" type="curve"/>
    </contour>
    <contour>
      <point x="66" y="285" type="line"/>
      <point x="436" y="285" type="line"/>
      <point x="455" y="405" type="line"/>
      <point x="85" y="405" type="line"/>
    </contour>
  </outline>
</glyph>
<glyph name="currency" format="2">
  <advance width="600"/>
  <unicode hex="00A4"/>
  <outline>
    <contour>
      <point x="468" y="110" type="line"/>
      <point x="549" y="178" type="line"/>
      <point x="431" y="316" type="line"/>
      <point x="445" y="233" type="line"/>
      <point x="484" y="271"/>
      <point x="512" y="319"/>
      <point x="520" y="373" type="curve" smooth="yes"/>
      <point x="529" y="427"/>
      <point x="517" y="477"/>
      <point x="490" y="512" type="curve"/>
      <point x="459" y="431" type="line"/>
      <point x="607" y="560" type="line"/>
      <point x="546" y="632" type="line"/>
      <point x="398" y="503" type="line"/>
      <point x="485" y="521" type="line"/>
      <point x="449" y="555"/>
      <point x="405" y="575"/>
      <point x="348" y="575" type="curve" smooth="yes"/>
      <point x="294" y="575"/>
      <point x="241" y="555"/>
      <point x="204" y="525" type="curve"/>
      <point x="280" y="496" type="line"/>
      <point x="163" y="636" type="line"/>
      <point x="83" y="567" type="line"/>
      <point x="199" y="428" type="line"/>
      <point x="187" y="510" type="line"/>
      <point x="146" y="475"/>
      <point x="118" y="427"/>
      <point x="110" y="373" type="curve" smooth="yes"/>
      <point x="102" y="317"/>
      <point x="115" y="266"/>
      <point x="145" y="230" type="curve"/>
      <point x="174" y="311" type="line"/>
      <point x="25" y="182" type="line"/>
      <point x="85" y="110" type="line"/>
      <point x="237" y="241" type="line"/>
      <point x="151" y="223" type="line"/>
      <point x="183" y="189"/>
      <point x="230" y="171"/>
      <point x="284" y="171" type="curve" smooth="yes"/>
      <point x="337" y="171"/>
      <point x="390" y="189"/>
      <point x="427" y="221" type="curve"/>
      <point x="350" y="248" type="line"/>
    </contour>
    <contour>
      <point x="299" y="266" type="curve" smooth="yes"/>
      <point x="239" y="266"/>
      <point x="200" y="312"/>
      <point x="210" y="373" type="curve" smooth="yes"/>
      <point x="220" y="434"/>
      <point x="273" y="480"/>
      <point x="333" y="480" type="curve" smooth="yes"/>
      <point x="392" y="480"/>
      <point x="430" y="434"/>
      <point x="420" y="373" type="curve" smooth="yes"/>
      <point x="410" y="312"/>
      <point x="358" y="266"/>
    </contour>
  </outline>
</glyph>
<glyph name="guillemetleft" format="2">
  <advance width="600"/>
  <unicode hex="00AB"/>
  <outline>
    <contour>
      <point x="390" y="40" type="line"/>
      <point x="542" y="40" type="line"/>
      <point x="418" y="274" type="line"/>
      <point x="628" y="520" type="line"/>
      <point x="468" y="520" type="line"/>
      <point x="265" y="280" type="line"/>
    </contour>
    <contour>
      <point x="140" y="40" type="line"/>
      <point x="292" y="40" type="line"/>
      <point x="168" y="274" type="line"/>
      <point x="378" y="520" type="line"/>
      <point x="218" y="520" type="line"/>
      <point x="15" y="280" type="line"/>
    </contour>
  </outline>
</glyph>
<glyph name="guillemetright" format="2">
  <advance width="600"/>
  <unicode hex="00BB"/>
  <outline>
    <contour>
      <point x="222" y="40" type="line"/>
      <point x="382" y="40" type="line"/>
      <point x="585" y="280" type="line"/>
      <point x="460" y="520" type="line"/>
      <point x="308" y="520" type="line"/>
      <point x="430" y="287" type="line"/>
    </contour>
    <contour>
      <point x="-28" y="40" type="line"/>
      <point x="132" y="40" type="line"/>
      <point x="335" y="280" type="line"/>
      <point x="210" y="520" type="line"/>
      <point x="58" y="520" type="line"/>
      <point x="180" y="287" type="line"/>
    </contour>
  </outline>
</glyph>
<glyph name="onequarter" format="2">
  <advance width="600"/>
  <unicode hex="00BC"/>
  <outline>
    <contour>
      <point x="57" y="404" type="line"/>
      <point x="351" y="404" type="line"/>
      <point x="363" y="479" type="line"/>
      <point x="273" y="479" type="line"/>
      <point x="312" y="729" type="line"/>
      <point x="197" y="729" type="line"/>
      <point x="114" y="675" type="line"/>
      <point x="98" y="577" type="line"/>
      <point x="167" y="624" type="line" smooth="yes"/>
      <point x="184" y="636"/>
      <point x="203" y="655"/>
      <point x="213" y="667" type="curve"/>
      <point x="183" y="479" type="line"/>
      <point x="69" y="479" type="line"/>
    </contour>
    <contour>
      <point x="415" y="0" type="line"/>
      <point x="505" y="0" type="line"/>
      <point x="537" y="205" type="line"/>
      <point x="447" y="205" type="line"/>
      <point x="436" y="130" type="line"/>
      <point x="361" y="130" type="line"/>
      <point x="363" y="146" type="line"/>
      <point x="526" y="325" type="line"/>
      <point x="427" y="325" type="line"/>
      <point x="275" y="160" type="line"/>
      <point x="260" y="60" type="line"/>
      <point x="425" y="60" type="line"/>
    </contour>
    <component base="fraction"/>
  </outline>
</glyph>
<glyph name="onehalf" format="2">
  <advance width="600"/>
  <unicode hex="00BD"/>
  <outline>
    <contour>
      <point x="266" y="0" type="line"/>
      <point x="541" y="0" type="line"/>
      <point x="553" y="75" type="line"/>
      <point x="453" y="75" type="line" smooth="yes"/>
      <point x="435" y="75"/>
      <point x="407" y="72"/>
      <point x="392" y="70" type="curve"/>
      <point x="394" y="79" type="line"/>
      <point x="456" y="110" type="line" smooth="yes"/>
      <point x="528" y="145"/>
      <point x="565" y="180"/>
      <point x="572" y="227" type="curve" smooth="yes"/>
      <point x="582" y="289"/>
      <point x="535" y="330"/>
      <point x="456" y="330" type="curve" smooth="yes"/>
      <point x="375" y="330"/>
      <point x="311" y="283"/>
      <point x="300" y="216" type="curve"/>
      <point x="390" y="216" type="line"/>
      <point x="394" y="242"/>
      <point x="416" y="260"/>
      <point x="445" y="260" type="curve" smooth="yes"/>
      <point x="470" y="260"/>
      <point x="485" y="244"/>
      <point x="481" y="219" type="curve" smooth="yes"/>
      <point x="478" y="199"/>
      <point x="464" y="184"/>
      <point x="436" y="169" type="curve" smooth="yes"/>
      <point x="280" y="89" type="line"/>
    </contour>
    <contour>
      <point x="57" y="405" type="line"/>
      <point x="351" y="405" type="line"/>
      <point x="363" y="480" type="line"/>
      <point x="273" y="480" type="line"/>
      <point x="313" y="730" type="line"/>
      <point x="198" y="730" type="line"/>
      <point x="114" y="676" type="line"/>
      <point x="99" y="578" type="line"/>
      <point x="167" y="625" type="line" smooth="yes"/>
      <point x="184" y="637"/>
      <point x="203" y="656"/>
      <point x="213" y="668" type="curve"/>
      <point x="183" y="480" type="line"/>
      <point x="69" y="480" type="line"/>
    </contour>
    <component base="fraction"/>
  </outline>
</glyph>
<glyph name="AE" format="2">
  <advance width="600"/>
  <unicode hex="00C6"/>
  <anchor x="256" y="0" name="bottom"/>
  <anchor x="372" y="730" name="top"/>
  <outline>
    <contour>
      <point x="-44" y="0" type="line"/>
      <point x="99" y="0" type="line"/>
      <point x="151" y="165" type="line"/>
      <point x="273" y="165" type="line"/>
      <point x="247" y="0" type="line"/>
      <point x="536" y="0" type="line"/>
      <point x="556" y="126" type="line"/>
      <point x="392" y="126" type="line"/>
      <point x="420" y="305" type="line"/>
      <point x="559" y="305" type="line"/>
      <point x="580" y="436" type="line"/>
      <point x="441" y="436" type="line"/>
      <point x="468" y="605" type="line"/>
      <point x="632" y="605" type="line"/>
      <point x="652" y="730" type="line"/>
      <point x="209" y="730" type="line"/>
    </contour>
    <contour>
      <point x="185" y="270" type="line"/>
      <point x="294" y="605" type="line"/>
      <point x="343" y="605" type="line"/>
      <point x="290" y="270" type="line"/>
    </contour>
  </outline>
</glyph>
<glyph name="eth" format="2">
  <advance width="600"/>
  <unicode hex="00F0"/>
  <outline>
    <contour>
      <point x="256" y="0" type="curve" smooth="yes"/>
      <point x="415" y="0"/>
      <point x="531" y="96"/>
      <point x="556" y="251" type="curve" smooth="yes"/>
      <point x="569" y="337"/>
      <point x="546" y="429"/>
      <point x="480" y="537" type="curve" smooth="yes"/>
      <point x="439" y="604" type="line"/>
      <point x="552" y="641" type="line"/>
      <point x="567" y="747" type="line"/>
      <point x="386" y="687" type="line"/>
      <point x="361" y="730" type="line"/>
      <point x="208" y="730" type="line"/>
      <point x="261" y="642" type="line"/>
      <point x="158" y="608" type="line"/>
      <point x="143" y="501" type="line"/>
      <point x="313" y="558" type="line"/>
      <point x="354" y="489" type="line" smooth="yes"/>
      <point x="400" y="412"/>
      <point x="408" y="380"/>
      <point x="406" y="375" type="curve"/>
      <point x="400" y="375" type="line"/>
      <point x="386" y="410"/>
      <point x="340" y="456"/>
      <point x="271" y="456" type="curve" smooth="yes"/>
      <point x="150" y="456"/>
      <point x="54" y="368"/>
      <point x="33" y="236" type="curve" smooth="yes"/>
      <point x="11" y="94"/>
      <point x="99" y="0"/>
    </contour>
    <contour>
      <point x="276" y="125" type="curve" smooth="yes"/>
      <point x="209" y="125"/>
      <point x="173" y="168"/>
      <point x="183" y="235" type="curve" smooth="yes"/>
      <point x="194" y="302"/>
      <point x="244" y="345"/>
      <point x="311" y="345" type="curve" smooth="yes"/>
      <point x="377" y="345"/>
      <point x="414" y="301"/>
      <point x="403" y="235" type="curve" smooth="yes"/>
      <point x="393" y="168"/>
      <point x="343" y="125"/>
    </contour>
  </outline>
</glyph>
<glyph name="thorn" format="2">
  <advance width="600"/>
  <unicode hex="00FE"/>
  <anchor x="256" y="0" name="bottom"/>
  <anchor x="372" y="730" name="top"/>
  <outline>
    <contour>
      <point x="-7" y="-180" type="line"/>
      <point x="138" y="-180" type="line"/>
      <point x="175" y="50" type="line"/>
      <point x="30" y="50" type="line"/>
    </contour>
    <component base="b"/>
  </outline>
</glyph>
<glyph name="Aogonek" format="2">
  <advance width="600"/>
  <unicode hex="0104"/>
  <anchor x="256" y="0" name="bottom"/>
  <anchor x="430" y="0" name="ogonek"/>
  <anchor x="372" y="730" name="top"/>
  <outline>
    <contour>
      <point x="384" y="-225" type="curve" smooth="yes"/>
      <point x="492" y="-225" type="line"/>
      <point x="509" y="-120" type="line"/>
      <point x="440" y="-120" type="line" smooth="yes"/>
      <point x="411" y="-120"/>
      <point x="397" y="-103"/>
      <point x="400" y="-83" type="curve" smooth="yes"/>
      <point x="403" y="-66"/>
      <point x="421" y="-42"/>
      <point x="451" y="-18" type="curve" smooth="yes"/>
      <point x="488" y="11" type="line"/>
      <point x="402" y="11" type="line"/>
      <point x="329" y="-19"/>
      <point x="278" y="-68"/>
      <point x="271" y="-115" type="curve" smooth="yes"/>
      <point x="260" y="-180"/>
      <point x="303" y="-225"/>
    </contour>
    <component base="A"/>
  </outline>
</glyph>
<glyph name="dcaron" format="2">
  <advance width="600"/>
  <unicode hex="010F"/>
  <outline>
    <contour>
      <point x="548" y="550" type="line"/>
      <point x="648" y="550" type="line"/>
      <point x="687" y="730" type="line"/>
      <point x="577" y="730" type="line"/>
    </contour>
    <contour>
      <point x="157" y="-10" type="curve" smooth="yes"/>
      <point x="234" y="-10"/>
      <point x="293" y="48"/>
      <point x="307" y="140" type="curve"/>
      <point x="267" y="105" type="line"/>
      <point x="302" y="105" type="line"/>
      <point x="285" y="0" type="line"/>
      <point x="420" y="0" type="line"/>
      <point x="536" y="730" type="line"/>
      <point x="396" y="730" type="line"/>
      <point x="372" y="580" type="line"/>
      <point x="355" y="445" type="line"/>
      <point x="320" y="445" type="line"/>
      <point x="350" y="410" type="line"/>
      <point x="365" y="502"/>
      <point x="325" y="560"/>
      <point x="248" y="560" type="curve" smooth="yes"/>
      <point x="148" y="560"/>
      <point x="72" y="479"/>
      <point x="52" y="351" type="curve" smooth="yes"/>
      <point x="28" y="200" type="line" smooth="yes"/>
      <point x="7" y="71"/>
      <point x="57" y="-10"/>
    </contour>
    <contour>
      <point x="230" y="110" type="curve" smooth="yes"/>
      <point x="182" y="110"/>
      <point x="159" y="145"/>
      <point x="168" y="205" type="curve" smooth="yes"/>
      <point x="191" y="346" type="line" smooth="yes"/>
      <point x="200" y="405"/>
      <point x="235" y="440"/>
      <point x="283" y="440" type="curve" smooth="yes"/>
      <point x="325" y="440"/>
      <point x="344" y="405"/>
      <point x="335" y="346" type="curve" smooth="yes"/>
      <point x="312" y="205" type="line" smooth="yes"/>
      <point x="303" y="145"/>
      <point x="272" y="110"/>
    </contour>
  </outline>
</glyph>
<glyph name="eogonek" format="2">
  <advance width="600"/>
  <unicode hex="0119"/>
  <anchor x="343" y="550" name="top"/>
  <outline>
    <contour>
      <point x="280" y="-225" type="curve" smooth="yes"/>
      <point x="388" y="-225" type="line"/>
      <point x="405" y="-120" type="line"/>
      <point x="336" y="-120" type="line" smooth="yes"/>
      <point x="307" y="-120"/>
      <point x="293" y="-103"/>
      <point x="296" y="-83" type="curve" smooth="yes"/>
      <point x="299" y="-66"/>
      <point x="317" y="-42"/>
      <point x="347" y="-18" type="curve" smooth="yes"/>
      <point x="406" y="29" type="line"/>
      <point x="454" y="58"/>
      <point x="494" y="99"/>
      <point x="515" y="150" type="curve"/>
      <point x="368" y="150" type="line"/>
      <point x="354" y="122"/>
      <point x="323" y="105"/>
      <point x="276" y="105" type="curve" smooth="yes"/>
      <point x="209" y="105"/>
      <point x="181" y="141"/>
      <point x="192" y="210" type="curve" smooth="yes"/>
      <point x="197" y="240" type="line"/>
      <point x="534" y="240" type="line"/>
      <point x="550" y="340" type="line" smooth="yes"/>
      <point x="571" y="472"/>
      <point x="492" y="560"/>
      <point x="346" y="560" type="curve" smooth="yes"/>
      <point x="199" y="560"/>
      <point x="91" y="472"/>
      <point x="70" y="340" type="curve" smooth="yes"/>
      <point x="49" y="210" type="line" smooth="yes"/>
      <point x="28" y="78"/>
      <point x="108" y="-10"/>
      <point x="255" y="-10" type="curve" smooth="yes"/>
      <point x="290" y="-10"/>
      <point x="316" y="9"/>
      <point x="320" y="29" type="curve"/>
      <point x="225" y="-19"/>
      <point x="174" y="-68"/>
      <point x="167" y="-115" type="curve" smooth="yes"/>
      <point x="156" y="-180"/>
      <point x="199" y="-225"/>
    </contour>
    <contour>
      <point x="403" y="317" type="line"/>
      <point x="415" y="327" type="line"/>
      <point x="210" y="325" type="line"/>
      <point x="213" y="340" type="line" smooth="yes"/>
      <point x="224" y="408"/>
      <point x="262" y="447"/>
      <point x="328" y="447" type="curve" smooth="yes"/>
      <point x="393" y="447"/>
      <point x="418" y="410"/>
      <point x="407" y="342" type="curve" smooth="yes"/>
    </contour>
  </outline>
</glyph>
<glyph name="iogonek" format="2">
  <advance width="600"/>
  <unicode hex="012F"/>
  <anchor x="276" y="0" name="bottom"/>
  <anchor x="290" y="0" name="ogonek"/>
  <anchor x="401" y="793" name="top"/>
  <outline>
    <contour>
      <point x="236" y="-225" type="curve" smooth="yes"/>
      <point x="344" y="-225" type="line"/>
      <point x="361" y="-120" type="line"/>
      <point x="292" y="-120" type="line" smooth="yes"/>
      <point x="263" y="-120"/>
      <point x="249" y="-103"/>
      <point x="252" y="-83" type="curve" smooth="yes"/>
      <point x="255" y="-66"/>
      <point x="273" y="-42"/>
      <point x="303" y="-18" type="curve" smooth="yes"/>
      <point x="340" y="11" type="line"/>
      <point x="254" y="11" type="line"/>
      <point x="181" y="-19"/>
      <point x="130" y="-68"/>
      <point x="123" y="-115" type="curve" smooth="yes"/>
      <point x="112" y="-180"/>
      <point x="155" y="-225"/>
    </contour>
    <component base="idotless"/>
    <component base="dotaccentcomb" xOffset="620"/>
  </outline>
</glyph>
<glyph name="Eng" format="2">
  <advance width="600"/>
  <unicode hex="014A"/>
  <outline>
    <contour>
      <point x="177" y="-180" type="line"/>
      <point x="227" y="-180" type="line" smooth="yes"/>
      <point x="368" y="-180"/>
      <point x="481" y="-96"/>
      <point x="500" y="25" type="curve" smooth="yes"/>
      <point x="612" y="730" type="line"/>
      <point x="480" y="730" type="line"/>
      <point x="447" y="526" type="line" smooth="yes"/>
      <point x="436" y="457"/>
      <point x="427" y="330"/>
      <point x="422" y="257" type="curve"/>
      <point x="302" y="730" type="line"/>
      <point x="132" y="730" type="line"/>
      <point x="16" y="0" type="line"/>
      <point x="148" y="0" type="line"/>
      <point x="199" y="320" type="line" smooth="yes"/>
      <point x="210" y="389"/>
      <point x="219" y="501"/>
      <point x="223" y="565" type="curve"/>
      <point x="352" y="41" type="line"/>
      <point x="345" y="-7"/>
      <point x="311" y="-35"/>
      <point x="260" y="-35" type="curve" smooth="yes"/>
      <point x="200" y="-35" type="line"/>
    </contour>
  </outline>
</glyph>
<glyph name="Tcedilla" format="2">
  <advance width="600"/>
  <unicode hex="0162"/>
  <anchor x="256" y="0" name="bottom"/>
  <anchor x="314" y="365" name="center"/>
  <anchor x="372" y="730" name="top"/>
  <outline>
    <contour>
      <point x="174" y="-225" type="line"/>
      <point x="284" y="-225" type="line" smooth="yes"/>
      <point x="368" y="-225"/>
      <point x="431" y="-182"/>
      <point x="439" y="-133" type="curve" smooth="yes"/>
      <point x="449" y="-72"/>
      <point x="372" y="-43"/>
      <point x="312" y="-39" type="curve"/>
      <point x="331" y="0" type="line"/>
      <point x="267" y="16" type="line"/>
      <point x="218" y="-69" type="line"/>
      <point x="291" y="-69"/>
      <point x="331" y="-88"/>
      <point x="326" y="-119" type="curve" smooth="yes"/>
      <point x="324" y="-135"/>
      <point x="298" y="-155"/>
      <point x="265" y="-155" type="curve" smooth="yes"/>
      <point x="185" y="-155" type="line"/>
    </contour>
    <component base="T"/>
  </outline>
</glyph>
<glyph name="uogonek" format="2">
  <advance width="600"/>
  <unicode hex="0173"/>
  <anchor x="453" y="550" name="horn"/>
  <anchor x="343" y="550" name="top"/>
  <outline>
    <contour>
      <point x="279" y="-225" type="curve" smooth="yes"/>
      <point x="387" y="-225" type="line"/>
      <point x="404" y="-120" type="line"/>
      <point x="335" y="-120" type="line" smooth="yes"/>
      <point x="306" y="-120"/>
      <point x="292" y="-103"/>
      <point x="295" y="-83" type="curve" smooth="yes"/>
      <point x="298" y="-66"/>
      <point x="316" y="-41"/>
      <point x="346" y="-18" type="curve" smooth="yes"/>
      <point x="410" y="31" type="line"/>
      <point x="470" y="70"/>
      <point x="513" y="135"/>
      <point x="525" y="210" type="curve" smooth="yes"/>
      <point x="579" y="550" type="line"/>
      <point x="429" y="550" type="line"/>
      <point x="375" y="210" type="line" smooth="yes"/>
      <point x="366" y="152"/>
      <point x="333" y="120"/>
      <point x="275" y="120" type="curve" smooth="yes"/>
      <point x="217" y="120"/>
      <point x="194" y="152"/>
      <point x="203" y="210" type="curve" smooth="yes"/>
      <point x="257" y="550" type="line"/>
      <point x="107" y="550" type="line"/>
      <point x="53" y="210" type="line" smooth="yes"/>
      <point x="32" y="78"/>
      <point x="107" y="-10"/>
      <point x="254" y="-10" type="curve" smooth="yes"/>
      <point x="275" y="-10"/>
      <point x="321" y="12"/>
      <point x="324" y="31" type="curve"/>
      <point x="224" y="-19"/>
      <point x="173" y="-68"/>
      <point x="166" y="-115" type="curve" smooth="yes"/>
      <point x="155" y="-180"/>
      <point x="198" y="-225"/>
    </contour>
  </outline>
</glyph>
<glyph name="longs" format="2">
  <advance width="600"/>
  <unicode hex="017F"/>
  <outline>
    <contour>
      <point x="-60" y="-180" type="line"/>
      <point x="43" y="-180" type="line" smooth="yes"/>
      <point x="184" y="-180"/>
      <point x="284" y="-106"/>
      <point x="303" y="14" type="curve"/>
      <point x="389" y="555" type="line"/>
      <point x="393" y="582"/>
      <point x="414" y="600"/>
      <point x="441" y="600" type="curve" smooth="yes"/>
      <point x="597" y="600" type="line"/>
      <point x="618" y="730" type="line"/>
      <point x="457" y="730" type="line" smooth="yes"/>
      <point x="343" y="730"/>
      <point x="256" y="662"/>
      <point x="240" y="560" type="curve"/>
      <point x="154" y="19" type="line"/>
      <point x="146" y="-31"/>
      <point x="110" y="-60"/>
      <point x="57" y="-60" type="curve" smooth="yes"/>
      <point x="-41" y="-60" type="line"/>
    </contour>
  </outline>
</glyph>
<glyph name="Eopen" format="2">
  <advance width="600"/>
  <unicode hex="0190"/>
  <outline>
    <contour>
      <point x="260" y="-10" type="curve" smooth="yes"/>
      <point x="411" y="-10"/>
      <point x="530" y="76"/>
      <point x="554" y="205" type="curve"/>
      <point x="404" y="205" type="line"/>
      <point x="392" y="154"/>
      <point x="345" y="120"/>
      <point x="284" y="120" type="curve" smooth="yes"/>
      <point x="218" y="120"/>
      <point x="180" y="159"/>
      <point x="190" y="218" type="curve" smooth="yes"/>
      <point x="199" y="278"/>
      <point x="249" y="317"/>
      <point x="316" y="317" type="curve" smooth="yes"/>
      <point x="417" y="317" type="line"/>
      <point x="436" y="437" type="line"/>
      <point x="333" y="437" type="line" smooth="yes"/>
      <point x="273" y="437"/>
      <point x="240" y="471"/>
      <point x="248" y="523" type="curve" smooth="yes"/>
      <point x="256" y="575"/>
      <point x="301" y="610"/>
      <point x="361" y="610" type="curve" smooth="yes"/>
      <point x="421" y="610"/>
      <point x="455" y="575"/>
      <point x="447" y="523" type="curve"/>
      <point x="597" y="523" type="line"/>
      <point x="618" y="654"/>
      <point x="528" y="740"/>
      <point x="373" y="740" type="curve" smooth="yes"/>
      <point x="226" y="740"/>
      <point x="117" y="660"/>
      <point x="98" y="540" type="curve" smooth="yes"/>
      <point x="82" y="444"/>
      <point x="131" y="383"/>
      <point x="222" y="383" type="curve"/>
      <point x="223" y="390" type="line"/>
      <point x="126" y="392"/>
      <point x="53" y="325"/>
      <point x="36" y="217" type="curve" smooth="yes"/>
      <point x="15" y="80"/>
      <point x="104" y="-10"/>
    </contour>
  </outline>
</glyph>
<glyph name="Ohorn" format="2">
  <advance width="600"/>
  <unicode hex="01A0"/>
  <anchor x="362" y="730" name="top"/>
  <anchor x="256" y="0" name="bottom"/>
  <anchor x="314" y="365" name="center"/>
  <anchor x="387" y="700" name="horn"/>
  <anchor x="305" y="0" name="ogonek"/>
  <anchor x="92" y="730" name="topleft"/>
  <anchor x="652" y="730" name="topright"/>
  <outline>
    <contour>
      <point x="432" y="600" type="line"/>
      <point x="492" y="600" type="line" smooth="yes"/>
      <point x="579" y="600"/>
      <point x="646" y="654"/>
      <point x="658" y="735" type="curve" smooth="yes"/>
      <point x="670" y="810" type="line"/>
      <point x="550" y="810" type="line"/>
      <point x="538" y="735" type="line" smooth="yes"/>
      <point x="535" y="713"/>
      <point x="520" y="700"/>
      <point x="498" y="700" type="curve" smooth="yes"/>
      <point x="448" y="700" type="line"/>
    </contour>
    <component base="O"/>
  </outline>
</glyph>
<glyph name="ohorn" format="2">
  <advance width="600"/>
  <unicode hex="01A1"/>
  <anchor x="333" y="550" name="top"/>
  <anchor x="256" y="0" name="bottom"/>
  <anchor x="300" y="275" name="center"/>
  <anchor x="363" y="550" name="horn"/>
  <anchor x="305" y="0" name="ogonek"/>
  <anchor x="624" y="550" name="topright"/>
  <outline>
    <contour>
      <point x="389" y="430" type="line"/>
      <point x="459" y="430" type="line" smooth="yes"/>
      <point x="546" y="430"/>
      <point x="613" y="484"/>
      <point x="625" y="565" type="curve" smooth="yes"/>
      <point x="637" y="640" type="line"/>
      <point x="517" y="640" type="line"/>
      <point x="505" y="565" type="line" smooth="yes"/>
      <point x="502" y="543"/>
      <point x="487" y="530"/>
      <point x="465" y="530" type="curve" smooth="yes"/>
      <point x="405" y="530" type="line"/>
    </contour>
    <component base="o"/>
  </outline>
</glyph>
<glyph name="uhorn" format="2">
  <advance width="600"/>
  <unicode hex="01B0"/>
  <anchor x="236" y="0" name="bottom"/>
  <anchor x="323" y="550" name="top"/>
  <outline>
    <contour>
      <point x="53" y="209" type="line" smooth="yes"/>
      <point x="31" y="72"/>
      <point x="99" y="-10"/>
      <point x="234" y="-10" type="curve" smooth="yes"/>
      <point x="369" y="-10"/>
      <point x="463" y="72"/>
      <point x="485" y="209" type="curve" smooth="yes"/>
      <point x="523" y="450" type="line"/>
      <point x="610" y="450"/>
      <point x="671" y="504"/>
      <point x="684" y="585" type="curve" smooth="yes"/>
      <point x="696" y="660" type="line"/>
      <point x="576" y="660" type="line"/>
      <point x="564" y="585" type="line" smooth="yes"/>
      <point x="560" y="563"/>
      <point x="545" y="550"/>
      <point x="523" y="550" type="curve" smooth="yes"/>
      <point x="389" y="550" type="line"/>
      <point x="335" y="206" type="line" smooth="yes"/>
      <point x="326" y="150"/>
      <point x="298" y="120"/>
      <point x="255" y="120" type="curve" smooth="yes"/>
      <point x="212" y="120"/>
      <point x="194" y="150"/>
      <point x="203" y="206" type="curve" smooth="yes"/>
      <point x="257" y="550" type="line"/>
      <point x="107" y="550" type="line"/>
    </contour>
  </outline>
</glyph>
<glyph name="oogonek" format="2">
  <advance width="600"/>
  <unicode hex="01EB"/>
  <anchor x="363" y="550" name="horn"/>
  <anchor x="343" y="550" name="top"/>
  <outline>
    <contour>
      <point x="279" y="-225" type="curve" smooth="yes"/>
      <point x="387" y="-225" type="line"/>
      <point x="404" y="-120" type="line"/>
      <point x="335" y="-120" type="line" smooth="yes"/>
      <point x="306" y="-120"/>
      <point x="292" y="-103"/>
      <point x="295" y="-83" type="curve" smooth="yes"/>
      <point x="298" y="-66"/>
      <point x="316" y="-41"/>
      <point x="346" y="-18" type="curve" smooth="yes"/>
      <point x="410" y="31" type="line"/>
      <point x="470" y="70"/>
      <point x="517" y="135"/>
      <point x="529" y="210" type="curve" smooth="yes"/>
      <point x="550" y="340" type="line" smooth="yes"/>
      <point x="571" y="472"/>
      <point x="492" y="560"/>
      <point x="345" y="560" type="curve" smooth="yes"/>
      <point x="198" y="560"/>
      <point x="91" y="472"/>
      <point x="70" y="340" type="curve" smooth="yes"/>
      <point x="49" y="210" type="line" smooth="yes"/>
      <point x="28" y="78"/>
      <point x="107" y="-10"/>
      <point x="254" y="-10" type="curve" smooth="yes"/>
      <point x="275" y="-10"/>
      <point x="321" y="12"/>
      <point x="324" y="31" type="curve"/>
      <point x="224" y="-19"/>
      <point x="173" y="-68"/>
      <point x="166" y="-115" type="curve" smooth="yes"/>
      <point x="155" y="-180"/>
      <point x="198" y="-225"/>
    </contour>
    <contour>
      <point x="275" y="120" type="curve" smooth="yes"/>
      <point x="217" y="120"/>
      <point x="190" y="152"/>
      <point x="199" y="210" type="curve" smooth="yes"/>
      <point x="220" y="340" type="line" smooth="yes"/>
      <point x="229" y="398"/>
      <point x="266" y="430"/>
      <point x="324" y="430" type="curve" smooth="yes"/>
      <point x="382" y="430"/>
      <point x="409" y="398"/>
      <point x="400" y="340" type="curve" smooth="yes"/>
      <point x="379" y="210" type="line" smooth="yes"/>
      <point x="370" y="152"/>
      <point x="333" y="120"/>
    </contour>
  </outline>
</glyph>
<glyph name="gravecomb" format="2">
  <unicode hex="0300"/>
  <anchor x="-243" y="550" name="_top"/>
  <anchor x="-251" y="785" name="top"/>
  <outline>
    <contour>
      <point x="-288" y="645" type="line"/>
      <point x="-141" y="645" type="line"/>
      <point x="-224" y="785" type="line"/>
      <point x="-383" y="785" type="line"/>
    </contour>
  </outline>
</glyph>
<glyph name="dieresiscomb" format="2">
  <unicode hex="0308"/>
  <anchor x="-256" y="550" name="_top"/>
  <anchor x="-218" y="793" name="top"/>
  <outline>
    <contour>
      <point x="-120" y="637" type="curve" smooth="yes"/>
      <point x="-71" y="637"/>
      <point x="-35" y="667"/>
      <point x="-28" y="715" type="curve" smooth="yes"/>
      <point x="-20" y="763"/>
      <point x="-46" y="793"/>
      <point x="-95" y="793" type="curve" smooth="yes"/>
      <point x="-144" y="793"/>
      <point x="-180" y="763"/>
      <point x="-188" y="715" type="curve" smooth="yes"/>
      <point x="-195" y="667"/>
      <point x="-169" y="637"/>
    </contour>
    <contour>
      <point x="-364" y="637" type="curve" smooth="yes"/>
      <point x="-315" y="637"/>
      <point x="-279" y="667"/>
      <point x="-272" y="715" type="curve" smooth="yes"/>
      <point x="-264" y="763"/>
      <point x="-290" y="793"/>
      <point x="-339" y="793" type="curve" smooth="yes"/>
      <point x="-388" y="793"/>
      <point x="-424" y="763"/>
      <point x="-432" y="715" type="curve" smooth="yes"/>
      <point x="-439" y="667"/>
      <point x="-413" y="637"/>
    </contour>
  </outline>
</glyph>
<glyph name="ringcomb" format="2">
  <unicode hex="030A"/>
  <anchor x="-257" y="550" name="_top"/>
  <anchor x="-209" y="853" name="top"/>
  <outline>
    <contour>
      <point x="-249" y="599" type="curve" smooth="yes"/>
      <point x="-165" y="599"/>
      <point x="-101" y="650"/>
      <point x="-89" y="726" type="curve" smooth="yes"/>
      <point x="-77" y="802"/>
      <point x="-125" y="853"/>
      <point x="-209" y="853" type="curve" smooth="yes"/>
      <point x="-293" y="853"/>
      <point x="-357" y="802"/>
      <point x="-369" y="726" type="curve" smooth="yes"/>
      <point x="-381" y="650"/>
      <point x="-333" y="599"/>
    </contour>
    <contour>
      <point x="-238" y="669" type="curve" smooth="yes"/>
      <point x="-274" y="669"/>
      <point x="-294" y="692"/>
      <point x="-289" y="726" type="curve" smooth="yes"/>
      <point x="-284" y="760"/>
      <point x="-256" y="783"/>
      <point x="-220" y="783" type="curve" smooth="yes"/>
      <point x="-184" y="783"/>
      <point x="-164" y="760"/>
      <point x="-169" y="726" type="curve" smooth="yes"/>
      <point x="-174" y="692"/>
      <point x="-202" y="669"/>
    </contour>
  </outline>
</glyph>
<glyph name="hungarumlautcomb" format="2">
  <unicode hex="030B"/>
  <anchor x="-257" y="550" name="_top"/>
  <anchor x="-182" y="785" name="top"/>
  <outline>
    <contour>
      <point x="-220" y="645" type="line"/>
      <point x="-84" y="645" type="line"/>
      <point x="53" y="785" type="line"/>
      <point x="-93" y="785" type="line"/>
    </contour>
    <contour>
      <point x="-440" y="645" type="line"/>
      <point x="-304" y="645" type="line"/>
      <point x="-167" y="785" type="line"/>
      <point x="-313" y="785" type="line"/>
    </contour>
  </outline>
</glyph>
<glyph name="caroncomb" format="2">
  <unicode hex="030C"/>
  <anchor x="-257" y="550" name="_top"/>
  <anchor x="-219" y="785" name="top"/>
  <outline>
    <contour>
      <point x="-311" y="645" type="line"/>
      <point x="-171" y="645" type="line"/>
      <point x="-14" y="785" type="line"/>
      <point x="-153" y="785" type="line"/>
      <point x="-231" y="715" type="line"/>
      <point x="-292" y="785" type="line"/>
      <point x="-424" y="785" type="line"/>
    </contour>
  </outline>
</glyph>
<glyph name="dblgravecomb" format="2">
  <unicode hex="030F"/>
  <anchor x="-257" y="550" name="_top"/>
  <anchor x="-257" y="785" name="top"/>
  <outline>
    <contour>
      <point x="-264" y="645" type="line"/>
      <point x="-347" y="785" type="line"/>
      <point x="-487" y="785" type="line"/>
      <point x="-394" y="645" type="line"/>
    </contour>
    <contour>
      <point x="-50" y="645" type="line"/>
      <point x="-133" y="785" type="line"/>
      <point x="-273" y="785" type="line"/>
      <point x="-180" y="645" type="line"/>
    </contour>
  </outline>
</glyph>
<glyph name="horncomb" format="2">
  <unicode hex="031B"/>
  <anchor x="-267" y="550" name="_horn"/>
  <anchor x="-237" y="550" name="_topright"/>
  <anchor x="36" y="660" name="topright"/>
  <outline>
    <contour>
      <point x="-233" y="450" type="line"/>
      <point x="-163" y="450" type="line" smooth="yes"/>
      <point x="-76" y="450"/>
      <point x="-9" y="504"/>
      <point x="4" y="585" type="curve" smooth="yes"/>
      <point x="16" y="660" type="line"/>
      <point x="-104" y="660" type="line"/>
      <point x="-116" y="585" type="line" smooth="yes"/>
      <point x="-120" y="563"/>
      <point x="-135" y="550"/>
      <point x="-157" y="550" type="curve" smooth="yes"/>
      <point x="-217" y="550" type="line"/>
    </contour>
  </outline>
</glyph>
<glyph name="dotbelowcomb" format="2">
  <unicode hex="0323"/>
  <anchor x="-343" y="0" name="_bottom"/>
  <anchor x="-380" y="-233" name="bottom"/>
  <outline>
    <contour>
      <point x="-380" y="-233" type="curve" smooth="yes"/>
      <point x="-325" y="-233"/>
      <point x="-285" y="-203"/>
      <point x="-278" y="-155" type="curve" smooth="yes"/>
      <point x="-270" y="-107"/>
      <point x="-300" y="-77"/>
      <point x="-355" y="-77" type="curve" smooth="yes"/>
      <point x="-410" y="-77"/>
      <point x="-450" y="-107"/>
      <point x="-458" y="-155" type="curve" smooth="yes"/>
      <point x="-465" y="-203"/>
      <point x="-435" y="-233"/>
    </contour>
  </outline>
</glyph>
<glyph name="slashshortcomb" format="2">
  <unicode hex="0337"/>
  <anchor x="-299" y="280" name="_center"/>
  <outline>
    <contour>
      <point x="-623" y="-30" type="line"/>
      <point x="-504" y="-30" type="line"/>
      <point x="25" y="590" type="line"/>
      <point x="-94" y="590" type="line"/>
    </contour>
  </outline>
</glyph>
<glyph name="tonos" format="2">
  <advance width="600"/>
  <unicode hex="0384"/>
  <anchor x="313" y="550" name="_top"/>
  <outline>
    <contour>
      <point x="240" y="645" type="line"/>
      <point x="389" y="645" type="line"/>
      <point x="528" y="785" type="line"/>
      <point x="367" y="785" type="line"/>
    </contour>
  </outline>
</glyph>
<glyph name="dieresistonos" format="2">
  <advance width="600"/>
  <unicode hex="0385"/>
  <outline>
    <contour>
      <point x="316" y="796" type="line"/>
      <point x="436" y="796" type="line"/>
      <point x="543" y="926" type="line"/>
      <point x="413" y="926" type="line"/>
    </contour>
    <contour>
      <point x="479" y="637" type="curve" smooth="yes"/>
      <point x="528" y="637"/>
      <point x="564" y="667"/>
      <point x="571" y="715" type="curve" smooth="yes"/>
      <point x="579" y="763"/>
      <point x="553" y="793"/>
      <point x="504" y="793" type="curve" smooth="yes"/>
      <point x="455" y="793"/>
      <point x="419" y="763"/>
      <point x="411" y="715" type="curve" smooth="yes"/>
      <point x="404" y="667"/>
      <point x="430" y="637"/>
    </contour>
    <contour>
      <point x="235" y="637" type="curve" smooth="yes"/>
      <point x="284" y="637"/>
      <point x="320" y="667"/>
      <point x="327" y="715" type="curve" smooth="yes"/>
      <point x="335" y="763"/>
      <point x="309" y="793"/>
      <point x="260" y="793" type="curve" smooth="yes"/>
      <point x="211" y="793"/>
      <point x="175" y="763"/>
      <point x="167" y="715" type="curve" smooth="yes"/>
      <point x="160" y="667"/>
      <point x="186" y="637"/>
    </contour>
  </outline>
</glyph>
<glyph name="Delta" format="2">
  <advance width="600"/>
  <unicode hex="0394"/>
  <outline>
    <contour>
      <point x="-19" y="0" type="line"/>
      <point x="531" y="0" type="line"/>
      <point x="466" y="730" type="line"/>
      <point x="276" y="730" type="line"/>
    </contour>
    <contour>
      <point x="184" y="130" type="line"/>
      <point x="306" y="462" type="line" smooth="yes"/>
      <point x="320" y="501"/>
      <point x="339" y="558"/>
      <point x="349" y="590" type="curve"/>
      <point x="350" y="558"/>
      <point x="353" y="501"/>
      <point x="355" y="461" type="curve" smooth="yes"/>
      <point x="373" y="130" type="line"/>
    </contour>
  </outline>
</glyph>
<glyph name="Theta" format="2">
  <advance width="600"/>
  <unicode hex="0398"/>
  <outline>
    <contour>
      <point x="255" y="-10" type="curve" smooth="yes"/>
      <point x="402" y="-10"/>
      <point x="509" y="78"/>
      <point x="530" y="210" type="curve" smooth="yes"/>
      <point x="579" y="520" type="line" smooth="yes"/>
      <point x="600" y="652"/>
      <point x="521" y="740"/>
      <point x="374" y="740" type="curve" smooth="yes"/>
      <point x="227" y="740"/>
      <point x="120" y="652"/>
      <point x="99" y="520" type="curve" smooth="yes"/>
      <point x="50" y="210" type="line" smooth="yes"/>
      <point x="29" y="78"/>
      <point x="108" y="-10"/>
    </contour>
    <contour>
      <point x="276" y="120" type="curve" smooth="yes"/>
      <point x="216" y="120"/>
      <point x="191" y="152"/>
      <point x="200" y="210" type="curve" smooth="yes"/>
      <point x="249" y="520" type="line" smooth="yes"/>
      <point x="259" y="578"/>
      <point x="293" y="610"/>
      <point x="354" y="610" type="curve" smooth="yes"/>
      <point x="415" y="610"/>
      <point x="439" y="578"/>
      <point x="429" y="520" type="curve" smooth="yes"/>
      <point x="380" y="210" type="line" smooth="yes"/>
      <point x="371" y="152"/>
      <point x="336" y="120"/>
    </contour>
    <contour>
      <point x="244" y="304" type="line"/>
      <point x="365" y="304" type="line"/>
      <point x="387" y="444" type="line"/>
      <point x="266" y="444" type="line"/>
    </contour>
  </outline>
</glyph>
<glyph name="Omega" format="2">
  <advance width="600"/>
  <unicode hex="03A9"/>
  <outline>
    <contour>
      <point x="6" y="0" type="line"/>
      <point x="216" y="0" type="line"/>
      <point x="252" y="230" type="line"/>
      <point x="215" y="230"/>
      <point x="195" y="258"/>
      <point x="202" y="300" type="curve" smooth="yes"/>
      <point x="236" y="516" type="line" smooth="yes"/>
      <point x="245" y="573"/>
      <point x="291" y="610"/>
      <point x="353" y="610" type="curve" smooth="yes"/>
      <point x="415" y="610"/>
      <point x="449" y="573"/>
      <point x="440" y="516" type="curve" smooth="yes"/>
      <point x="406" y="300" type="line" smooth="yes"/>
      <point x="399" y="258"/>
      <point x="369" y="230"/>
      <point x="332" y="230" type="curve"/>
      <point x="296" y="0" type="line"/>
      <point x="507" y="0" type="line"/>
      <point x="529" y="140" type="line"/>
      <point x="383" y="140" type="line"/>
      <point x="384" y="146" type="line"/>
      <point x="448" y="152"/>
      <point x="540" y="199"/>
      <point x="556" y="305" type="curve" smooth="yes"/>
      <point x="590" y="516" type="line" smooth="yes"/>
      <point x="611" y="651"/>
      <point x="525" y="740"/>
      <point x="373" y="740" type="curve" smooth="yes"/>
      <point x="221" y="740"/>
      <point x="107" y="651"/>
      <point x="86" y="516" type="curve" smooth="yes"/>
      <point x="52" y="305" type="line" smooth="yes"/>
      <point x="36" y="199"/>
      <point x="112" y="151"/>
      <point x="174" y="145" type="curve"/>
      <point x="173" y="140" type="line"/>
      <point x="28" y="140" type="line"/>
    </contour>
  </outline>
</glyph>
<glyph name="beta" format="2">
  <advance width="600"/>
  <unicode hex="03B2"/>
  <outline>
    <contour>
      <point x="-13" y="-180" type="line"/>
      <point x="122" y="-180" type="line"/>
      <point x="151" y="0" type="line"/>
      <point x="268" y="0" type="line" smooth="yes"/>
      <point x="417" y="0"/>
      <point x="529" y="84"/>
      <point x="549" y="209" type="curve" smooth="yes"/>
      <point x="564" y="300"/>
      <point x="519" y="365"/>
      <point x="435" y="387" type="curve"/>
      <point x="521" y="406"/>
      <point x="576" y="461"/>
      <point x="589" y="545" type="curve" smooth="yes"/>
      <point x="608" y="662"/>
      <point x="520" y="740"/>
      <point x="369" y="740" type="curve" smooth="yes"/>
      <point x="227" y="740"/>
      <point x="119" y="650"/>
      <point x="98" y="516" type="curve" smooth="yes"/>
    </contour>
    <contour>
      <point x="171" y="125" type="line"/>
      <point x="233" y="516" type="line" smooth="yes"/>
      <point x="242" y="577"/>
      <point x="287" y="615"/>
      <point x="348" y="615" type="curve" smooth="yes"/>
      <point x="410" y="615"/>
      <point x="443" y="577"/>
      <point x="434" y="517" type="curve" smooth="yes"/>
      <point x="425" y="462"/>
      <point x="385" y="428"/>
      <point x="329" y="428" type="curve" smooth="yes"/>
      <point x="284" y="428" type="line"/>
      <point x="266" y="318" type="line"/>
      <point x="313" y="318" type="line" smooth="yes"/>
      <point x="376" y="318"/>
      <point x="410" y="281"/>
      <point x="400" y="221" type="curve" smooth="yes"/>
      <point x="390" y="161"/>
      <point x="347" y="125"/>
      <point x="283" y="125" type="curve" smooth="yes"/>
    </contour>
  </outline>
</glyph>
<glyph name="zeta" format="2">
  <advance width="600"/>
  <unicode hex="03B6"/>
  <outline>
    <contour>
      <point x="337" y="-180" type="line"/>
      <point x="487" y="-180" type="line"/>
      <point x="511" y="-34" type="line" smooth="yes"/>
      <point x="528" y="70"/>
      <point x="477" y="130"/>
      <point x="371" y="130" type="curve" smooth="yes"/>
      <point x="261" y="130" type="line" smooth="yes"/>
      <point x="201" y="130"/>
      <point x="173" y="159"/>
      <point x="182" y="212" type="curve" smooth="yes"/>
      <point x="190" y="266"/>
      <point x="228" y="317"/>
      <point x="375" y="438" type="curve" smooth="yes"/>
      <point x="565" y="594" type="line"/>
      <point x="587" y="730" type="line"/>
      <point x="151" y="730" type="line"/>
      <point x="128" y="590" type="line"/>
      <point x="381" y="590" type="line"/>
      <point x="291" y="520" type="line" smooth="yes"/>
      <point x="117" y="384"/>
      <point x="46" y="310"/>
      <point x="29" y="200" type="curve" smooth="yes"/>
      <point x="8" y="70"/>
      <point x="82" y="0"/>
      <point x="240" y="0" type="curve" smooth="yes"/>
      <point x="312" y="0" type="line" smooth="yes"/>
      <point x="346" y="0"/>
      <point x="362" y="-20"/>
      <point x="357" y="-54" type="curve" smooth="yes"/>
    </contour>
  </outline>
</glyph>
<glyph name="lambda" format="2">
  <advance width="600"/>
  <unicode hex="03BB"/>
  <outline>
    <contour>
      <point x="-18" y="0" type="line"/>
      <point x="148" y="0" type="line"/>
      <point x="291" y="297" type="line" smooth="yes"/>
      <point x="306" y="329"/>
      <point x="322" y="376"/>
      <point x="329" y="403" type="curve"/>
      <point x="329" y="376"/>
      <point x="330" y="328"/>
      <point x="335" y="297" type="curve" smooth="yes"/>
      <point x="379" y="0" type="line"/>
      <point x="532" y="0" type="line"/>
      <point x="391" y="730" type="line"/>
      <point x="234" y="730" type="line"/>
      <point x="279" y="545" type="line"/>
    </contour>
  </outline>
</glyph>
<glyph name="tau" format="2">
  <advance width="600"/>
  <unicode hex="03C4"/>
  <outline>
    <contour>
      <point x="341" y="0" type="curve" smooth="yes"/>
      <point x="486" y="0" type="line"/>
      <point x="507" y="135" type="line"/>
      <point x="377" y="135" type="line" smooth="yes"/>
      <point x="348" y="135"/>
      <point x="335" y="151"/>
      <point x="340" y="180" type="curve" smooth="yes"/>
      <point x="377" y="415" type="line"/>
      <point x="562" y="415" type="line"/>
      <point x="583" y="550" type="line"/>
      <point x="83" y="550" type="line"/>
      <point x="62" y="415" type="line"/>
      <point x="227" y="415" type="line"/>
      <point x="190" y="180" type="line" smooth="yes"/>
      <point x="172" y="68"/>
      <point x="229" y="0"/>
    </contour>
  </outline>
</glyph>
<glyph name="omega" format="2">
  <advance width="600"/>
  <unicode hex="03C9"/>
  <outline>
    <contour>
      <point x="131" y="-10" type="curve" smooth="yes"/>
      <point x="205" y="-10"/>
      <point x="265" y="46"/>
      <point x="279" y="130" type="curve"/>
      <point x="277" y="130" type="line"/>
      <point x="262" y="46"/>
      <point x="304" y="-10"/>
      <point x="377" y="-10" type="curve" smooth="yes"/>
      <point x="461" y="-10"/>
      <point x="527" y="60"/>
      <point x="543" y="165" type="curve" smooth="yes"/>
      <point x="570" y="335" type="line" smooth="yes"/>
      <point x="590" y="458"/>
      <point x="533" y="543"/>
      <point x="433" y="560" type="curve"/>
      <point x="411" y="420" type="line"/>
      <point x="439" y="411"/>
      <point x="454" y="377"/>
      <point x="447" y="335" type="curve" smooth="yes"/>
      <point x="418" y="152" type="line" smooth="yes"/>
      <point x="413" y="120"/>
      <point x="395" y="102"/>
      <point x="369" y="102" type="curve" smooth="yes"/>
      <point x="341" y="102"/>
      <point x="328" y="120"/>
      <point x="333" y="152" type="curve" smooth="yes"/>
      <point x="362" y="335" type="line"/>
      <point x="258" y="335" type="line"/>
      <point x="229" y="152" type="line" smooth="yes"/>
      <point x="224" y="120"/>
      <point x="205" y="102"/>
      <point x="177" y="102" type="curve" smooth="yes"/>
      <point x="151" y="102"/>
      <point x="139" y="120"/>
      <point x="144" y="152" type="curve" smooth="yes"/>
      <point x="173" y="335" type="line" smooth="yes"/>
      <point x="180" y="377"/>
      <point x="205" y="411"/>
      <point x="237" y="420" type="curve"/>
      <point x="259" y="560" type="line"/>
      <point x="153" y="543"/>
      <point x="70" y="458"/>
      <point x="50" y="335" type="curve" smooth="yes"/>
      <point x="23" y="165" type="line" smooth="yes"/>
      <point x="7" y="60"/>
      <point x="49" y="-10"/>
    </contour>
  </outline>
</glyph>
<glyph name="piSymbol" format="2">
  <advance width="600"/>
  <unicode hex="03D6"/>
  <outline>
    <contour>
      <point x="130" y="-10" type="curve" smooth="yes"/>
      <point x="198" y="-10"/>
      <point x="254" y="37"/>
      <point x="273" y="109" type="curve"/>
      <point x="269" y="37"/>
      <point x="309" y="-10"/>
      <point x="376" y="-10" type="curve" smooth="yes"/>
      <point x="460" y="-10"/>
      <point x="526" y="60"/>
      <point x="542" y="165" type="curve" smooth="yes"/>
      <point x="560" y="275" type="line" smooth="yes"/>
      <point x="576" y="377"/>
      <point x="530" y="440"/>
      <point x="438" y="440" type="curve"/>
      <point x="487" y="404" type="line"/>
      <point x="490" y="422" type="line"/>
      <point x="613" y="422" type="line"/>
      <point x="633" y="550" type="line"/>
      <point x="53" y="550" type="line"/>
      <point x="33" y="422" type="line"/>
      <point x="156" y="422" type="line"/>
      <point x="153" y="402" type="line"/>
      <point x="214" y="440" type="line"/>
      <point x="122" y="440"/>
      <point x="56" y="377"/>
      <point x="40" y="275" type="curve" smooth="yes"/>
      <point x="22" y="165" type="line" smooth="yes"/>
      <point x="6" y="60"/>
      <point x="48" y="-10"/>
    </contour>
    <contour>
      <point x="176" y="102" type="curve" smooth="yes"/>
      <point x="150" y="102"/>
      <point x="138" y="120"/>
      <point x="143" y="152" type="curve" smooth="yes"/>
      <point x="178" y="372" type="line" smooth="yes"/>
      <point x="183" y="404"/>
      <point x="201" y="422"/>
      <point x="227" y="422" type="curve"/>
      <point x="419" y="422" type="line"/>
      <point x="445" y="422"/>
      <point x="457" y="404"/>
      <point x="452" y="372" type="curve" smooth="yes"/>
      <point x="417" y="152" type="line" smooth="yes"/>
      <point x="412" y="120"/>
      <point x="394" y="102"/>
      <point x="368" y="102" type="curve" smooth="yes"/>
      <point x="340" y="102"/>
      <point x="327" y="120"/>
      <point x="332" y="152" type="curve" smooth="yes"/>
      <point x="359" y="325" type="line"/>
      <point x="255" y="325" type="line"/>
      <point x="228" y="152" type="line" smooth="yes"/>
      <point x="223" y="120"/>
      <point x="204" y="102"/>
    </contour>
  </outline>
</glyph>
<glyph name="kaiSymbol" format="2">
  <advance width="600"/>
  <unicode hex="03D7"/>
  <outline>
    <contour>
      <point x="263" y="-180" type="line"/>
      <point x="330" y="-180" type="line" smooth="yes"/>
      <point x="445" y="-180"/>
      <point x="517" y="-120"/>
      <point x="534" y="-10" type="curve" smooth="yes"/>
      <point x="552" y="100" type="line"/>
      <point x="506" y="100" type="line"/>
      <point x="577" y="550" type="line"/>
      <point x="395" y="550" type="line"/>
      <point x="149" y="95" type="line"/>
      <point x="167" y="153"/>
      <point x="193" y="249"/>
      <point x="202" y="300" type="curve" smooth="yes"/>
      <point x="241" y="550" type="line"/>
      <point x="109" y="550" type="line"/>
      <point x="22" y="0" type="line"/>
      <point x="204" y="0" type="line"/>
      <point x="445" y="435" type="line"/>
      <point x="429" y="386"/>
      <point x="406" y="301"/>
      <point x="398" y="250" type="curve" smooth="yes"/>
      <point x="358" y="0" type="line"/>
      <point x="404" y="0" type="line"/>
      <point x="404" y="-1" type="line" smooth="yes"/>
      <point x="398" y="-38"/>
      <point x="377" y="-55"/>
      <point x="340" y="-55" type="curve" smooth="yes"/>
      <point x="283" y="-55" type="line"/>
    </contour>
  </outline>
</glyph>
<glyph name="Ze-cy" format="2">
  <advance width="600"/>
  <unicode hex="0417"/>
  <outline>
    <contour>
      <point x="255" y="-10" type="curve" smooth="yes"/>
      <point x="411" y="-10"/>
      <point x="530" y="80"/>
      <point x="551" y="217" type="curve" smooth="yes"/>
      <point x="568" y="325"/>
      <point x="517" y="392"/>
      <point x="420" y="390" type="curve"/>
      <point x="419" y="383" type="line"/>
      <point x="510" y="383"/>
      <point x="577" y="444"/>
      <point x="593" y="540" type="curve" smooth="yes"/>
      <point x="612" y="660"/>
      <point x="527" y="740"/>
      <point x="380" y="740" type="curve" smooth="yes"/>
      <point x="225" y="740"/>
      <point x="109" y="654"/>
      <point x="88" y="523" type="curve"/>
      <point x="238" y="523" type="line"/>
      <point x="246" y="575"/>
      <point x="292" y="610"/>
      <point x="352" y="610" type="curve" smooth="yes"/>
      <point x="412" y="610"/>
      <point x="445" y="575"/>
      <point x="437" y="523" type="curve" smooth="yes"/>
      <point x="429" y="471"/>
      <point x="384" y="437"/>
      <point x="324" y="437" type="curve" smooth="yes"/>
      <point x="221" y="437" type="line"/>
      <point x="202" y="317" type="line"/>
      <point x="303" y="317" type="line" smooth="yes"/>
      <point x="370" y="317"/>
      <point x="408" y="278"/>
      <point x="399" y="218" type="curve" smooth="yes"/>
      <point x="389" y="159"/>
      <point x="339" y="120"/>
      <point x="273" y="120" type="curve" smooth="yes"/>
      <point x="212" y="120"/>
      <point x="175" y="154"/>
      <point x="179" y="205" type="curve"/>
      <point x="29" y="205" type="line"/>
      <point x="13" y="76"/>
      <point x="104" y="-10"/>
    </contour>
  </outline>
</glyph>
<glyph name="U-cy" format="2">
  <advance width="600"/>
  <unicode hex="0423"/>
  <anchor x="372" y="730" name="top"/>
  <outline>
    <contour>
      <point x="117" y="0" type="line"/>
      <point x="274" y="0" type="line"/>
      <point x="647" y="730" type="line"/>
      <point x="488" y="730" type="line"/>
      <point x="350" y="433" type="line" smooth="yes"/>
      <point x="336" y="402"/>
      <point x="321" y="354"/>
      <point x="314" y="327" type="curve"/>
      <point x="314" y="354"/>
      <point x="311" y="401"/>
      <point x="306" y="433" type="curve" smooth="yes"/>
      <point x="257" y="730" type="line"/>
      <point x="97" y="730" type="line"/>
      <point x="215" y="187" type="line"/>
    </contour>
  </outline>
</glyph>
<glyph name="ve-cy" format="2">
  <advance width="600"/>
  <unicode hex="0432"/>
  <outline>
    <contour>
      <point x="23" y="0" type="line"/>
      <point x="295" y="0" type="line" smooth="yes"/>
      <point x="424" y="0"/>
      <point x="516" y="62"/>
      <point x="531" y="158" type="curve" smooth="yes"/>
      <point x="544" y="237"/>
      <point x="497" y="288"/>
      <point x="411" y="290" type="curve"/>
      <point x="412" y="297" type="line"/>
      <point x="487" y="299"/>
      <point x="541" y="341"/>
      <point x="551" y="407" type="curve" smooth="yes"/>
      <point x="565" y="494"/>
      <point x="493" y="550"/>
      <point x="364" y="550" type="curve" smooth="yes"/>
      <point x="110" y="550" type="line"/>
    </contour>
    <contour>
      <point x="187" y="105" type="line"/>
      <point x="208" y="239" type="line"/>
      <point x="320" y="239" type="line" smooth="yes"/>
      <point x="369" y="239"/>
      <point x="394" y="214"/>
      <point x="387" y="172" type="curve" smooth="yes"/>
      <point x="381" y="130"/>
      <point x="348" y="105"/>
      <point x="299" y="105" type="curve" smooth="yes"/>
    </contour>
    <contour>
      <point x="222" y="327" type="line"/>
      <point x="240" y="445" type="line"/>
      <point x="342" y="445" type="line" smooth="yes"/>
      <point x="386" y="445"/>
      <point x="409" y="423"/>
      <point x="403" y="386" type="curve" smooth="yes"/>
      <point x="397" y="349"/>
      <point x="368" y="327"/>
      <point x="324" y="327" type="curve" smooth="yes"/>
    </contour>
  </outline>
</glyph>
<glyph name="de-cy" format="2">
  <advance width="600"/>
  <unicode hex="0434"/>
  <outline>
    <contour>
      <point x="255" y="-10" type="curve" smooth="yes"/>
      <point x="402" y="-7"/>
      <point x="508" y="75"/>
      <point x="530" y="210" type="curve" smooth="yes"/>
      <point x="568" y="455" type="line" smooth="yes"/>
      <point x="596" y="631"/>
      <point x="509" y="730"/>
      <point x="326" y="730" type="curve" smooth="yes"/>
      <point x="161" y="730" type="line"/>
      <point x="139" y="585" type="line"/>
      <point x="304" y="585" type="line" smooth="yes"/>
      <point x="392" y="585"/>
      <point x="431" y="540"/>
      <point x="418" y="455" type="curve" smooth="yes"/>
      <point x="407" y="385" type="line"/>
      <point x="393" y="385" type="line"/>
      <point x="403" y="371" type="line"/>
      <point x="415" y="446"/>
      <point x="373" y="494"/>
      <point x="279" y="494" type="curve" smooth="yes"/>
      <point x="163" y="494"/>
      <point x="81" y="414"/>
      <point x="61" y="279" type="curve" smooth="yes"/>
      <point x="50" y="210" type="line" smooth="yes"/>
      <point x="28" y="75"/>
      <point x="107" y="-13"/>
    </contour>
    <contour>
      <point x="275" y="120" type="curve" smooth="yes"/>
      <point x="217" y="120"/>
      <point x="190" y="152"/>
      <point x="200" y="210" type="curve" smooth="yes"/>
      <point x="211" y="279" type="line" smooth="yes"/>
      <point x="220" y="337"/>
      <point x="257" y="369"/>
      <point x="315" y="369" type="curve" smooth="yes"/>
      <point x="373" y="369"/>
      <point x="400" y="337"/>
      <point x="391" y="279" type="curve" smooth="yes"/>
      <point x="380" y="210" type="line" smooth="yes"/>
      <point x="370" y="152"/>
      <point x="333" y="120"/>
    </contour>
  </outline>
</glyph>
<glyph name="ia-cy" format="2">
  <advance width="600"/>
  <unicode hex="044F"/>
  <outline>
    <contour>
      <point x="6" y="0" type="line"/>
      <point x="163" y="0" type="line"/>
      <point x="303" y="174" type="line"/>
      <point x="369" y="174" type="line"/>
      <point x="341" y="0" type="line"/>
      <point x="490" y="0" type="line"/>
      <point x="577" y="550" type="line"/>
      <point x="330" y="550" type="line" smooth="yes"/>
      <point x="186" y="550"/>
      <point x="89" y="478"/>
      <point x="70" y="357" type="curve" smooth="yes"/>
      <point x="54" y="262"/>
      <point x="107" y="193"/>
      <point x="207" y="181" type="curve"/>
      <point x="206" y="245" type="line"/>
    </contour>
    <contour>
      <point x="298" y="288" type="line" smooth="yes"/>
      <point x="241" y="288"/>
      <point x="212" y="314"/>
      <point x="219" y="359" type="curve" smooth="yes"/>
      <point x="226" y="404"/>
      <point x="264" y="431"/>
      <point x="320" y="431" type="curve" smooth="yes"/>
      <point x="410" y="431" type="line"/>
      <point x="388" y="288" type="line"/>
    </contour>
  </outline>
</glyph>
<glyph name="tshe-cy" format="2">
  <advance width="600"/>
  <unicode hex="045B"/>
  <outline>
    <contour>
      <point x="44" y="555" type="line"/>
      <point x="110" y="555" type="line"/>
      <point x="22" y="0" type="line"/>
      <point x="172" y="0" type="line"/>
      <point x="216" y="280" type="line" smooth="yes"/>
      <point x="225" y="337"/>
      <point x="262" y="370"/>
      <point x="315" y="370" type="curve" smooth="yes"/>
      <point x="369" y="370"/>
      <point x="395" y="337"/>
      <point x="386" y="280" type="curve" smooth="yes"/>
      <point x="342" y="0" type="line"/>
      <point x="492" y="0" type="line"/>
      <point x="539" y="295" type="line" smooth="yes"/>
      <point x="558" y="419"/>
      <point x="501" y="500"/>
      <point x="394" y="500" type="curve" smooth="yes"/>
      <point x="315" y="500"/>
      <point x="255" y="457"/>
      <point x="231" y="385" type="curve"/>
      <point x="228" y="385" type="line"/>
      <point x="250" y="490" type="line"/>
      <point x="260" y="555" type="line"/>
      <point x="404" y="555" type="line"/>
      <point x="418" y="645" type="line"/>
      <point x="274" y="645" type="line"/>
      <point x="288" y="730" type="line"/>
      <point x="138" y="730" type="line"/>
      <point x="124" y="645" type="line"/>
      <point x="58" y="645" type="line"/>
    </contour>
  </outline>
</glyph>
<glyph name="Endescender-cy" format="2">
  <advance width="600"/>
  <unicode hex="04A2"/>
  <anchor x="246" y="0" name="bottom"/>
  <anchor x="304" y="365" name="center"/>
  <anchor x="362" y="730" name="top"/>
  <anchor x="82" y="730" name="topleft"/>
  <outline>
    <contour>
      <point x="394" y="-140" type="line"/>
      <point x="524" y="-140" type="line"/>
      <point x="568" y="140" type="line"/>
      <point x="438" y="140" type="line"/>
    </contour>
    <component base="H" xOffset="-10"/>
  </outline>
</glyph>
<glyph name="endescender-cy" format="2">
  <advance width="600"/>
  <unicode hex="04A3"/>
  <anchor x="490" y="0" name="stick-cy"/>
  <outline>
    <contour>
      <point x="12" y="0" type="line"/>
      <point x="162" y="0" type="line"/>
      <point x="195" y="209" type="line"/>
      <point x="363" y="209" type="line"/>
      <point x="330" y="0" type="line"/>
      <point x="480" y="0" type="line"/>
      <point x="567" y="550" type="line"/>
      <point x="417" y="550" type="line"/>
      <point x="385" y="349" type="line"/>
      <point x="217" y="349" type="line"/>
      <point x="249" y="550" type="line"/>
      <point x="99" y="550" type="line"/>
    </contour>
    <contour>
      <point x="393" y="-140" type="line"/>
      <point x="523" y="-140" type="line"/>
      <point x="567" y="140" type="line"/>
      <point x="437" y="140" type="line"/>
    </contour>
  </outline>
</glyph>
<glyph name="ustraightstroke-cy" format="2">
  <advance width="600"/>
  <unicode hex="04B1"/>
  <outline>
    <contour>
      <point x="62" y="-90" type="line"/>
      <point x="422" y="-90" type="line"/>
      <point x="436" y="0" type="line"/>
      <point x="76" y="0" type="line"/>
    </contour>
    <component base="gamma"/>
  </outline>
</glyph>
<glyph name="Germandbls" format="2">
  <advance width="600"/>
  <unicode hex="1E9E"/>
  <outline>
    <contour>
      <point x="16" y="0" type="line"/>
      <point x="151" y="0" type="line"/>
      <point x="232" y="511" type="line" smooth="yes"/>
      <point x="241" y="568"/>
      <point x="286" y="605"/>
      <point x="347" y="605" type="curve" smooth="yes"/>
      <point x="460" y="605" type="line"/>
      <point x="284" y="438" type="line"/>
      <point x="267" y="328" type="line"/>
      <point x="314" y="328" type="line" smooth="yes"/>
      <point x="377" y="328"/>
      <point x="409" y="287"/>
      <point x="400" y="227" type="curve" smooth="yes"/>
      <point x="390" y="167"/>
      <point x="346" y="125"/>
      <point x="282" y="125" type="curve" smooth="yes"/>
      <point x="235" y="125" type="line"/>
      <point x="215" y="0" type="line"/>
      <point x="267" y="0" type="line" smooth="yes"/>
      <point x="418" y="0"/>
      <point x="528" y="84"/>
      <point x="549" y="215" type="curve" smooth="yes"/>
      <point x="569" y="344"/>
      <point x="495" y="427"/>
      <point x="359" y="425" type="curve"/>
      <point x="364" y="370" type="line"/>
      <point x="595" y="589" type="line"/>
      <point x="618" y="730" type="line"/>
      <point x="368" y="730" type="line" smooth="yes"/>
      <point x="225" y="730"/>
      <point x="118" y="644"/>
      <point x="97" y="511" type="curve" smooth="yes"/>
    </contour>
  </outline>
</glyph>
<glyph name="endash" format="2">
  <advance width="600"/>
  <unicode hex="2013"/>
  <outline>
    <contour>
      <point x="77" y="260" type="line"/>
      <point x="517" y="260" type="line"/>
      <point x="539" y="400" type="line"/>
      <point x="99" y="400" type="line"/>
    </contour>
  </outline>
</glyph>
<glyph name="guilsinglright" format="2">
  <advance width="600"/>
  <unicode hex="203A"/>
  <outline>
    <contour>
      <point x="97" y="40" type="line"/>
      <point x="252" y="40" type="line"/>
      <point x="465" y="280" type="line"/>
      <point x="328" y="520" type="line"/>
      <point x="178" y="520" type="line"/>
      <point x="311" y="284" type="line"/>
    </contour>
  </outline>
</glyph>
<glyph name="bracketleftwithquill" format="2">
  <advance width="600"/>
  <unicode hex="2045"/>
  <outline>
    <contour>
      <point x="98" y="-110" type="line"/>
      <point x="403" y="-110" type="line"/>
      <point x="425" y="30" type="line"/>
      <point x="270" y="30" type="line"/>
      <point x="313" y="305" type="line"/>
      <point x="468" y="305" type="line"/>
      <point x="490" y="445" type="line"/>
      <point x="335" y="445" type="line"/>
      <point x="374" y="690" type="line"/>
      <point x="529" y="690" type="line"/>
      <point x="551" y="830" type="line"/>
      <point x="246" y="830" type="line"/>
    </contour>
  </outline>
</glyph>
<glyph name="zerosuperior" format="2">
  <advance width="600"/>
  <unicode hex="2070"/>
  <outline>
    <contour>
      <point x="319" y="395" type="curve" smooth="yes"/>
      <point x="420" y="395"/>
      <point x="493" y="453"/>
      <point x="507" y="545" type="curve" smooth="yes"/>
      <point x="530" y="690" type="line" smooth="yes"/>
      <point x="545" y="782"/>
      <point x="490" y="840"/>
      <point x="389" y="840" type="curve" smooth="yes"/>
      <point x="288" y="840"/>
      <point x="215" y="782"/>
      <point x="200" y="690" type="curve" smooth="yes"/>
      <point x="177" y="545" type="line" smooth="yes"/>
      <point x="163" y="453"/>
      <point x="218" y="395"/>
    </contour>
    <contour>
      <point x="332" y="480" type="curve" smooth="yes"/>
      <point x="289" y="480"/>
      <point x="266" y="505"/>
      <point x="272" y="545" type="curve" smooth="yes"/>
      <point x="295" y="690" type="line" smooth="yes"/>
      <point x="302" y="730"/>
      <point x="333" y="755"/>
      <point x="376" y="755" type="curve" smooth="yes"/>
      <point x="419" y="755"/>
      <point x="442" y="730"/>
      <point x="435" y="690" type="curve" smooth="yes"/>
      <point x="412" y="545" type="line" smooth="yes"/>
      <point x="406" y="505"/>
      <point x="375" y="480"/>
    </contour>
  </outline>
</glyph>
<glyph name="eightsuperior" format="2">
  <advance width="600"/>
  <unicode hex="2078"/>
  <outline>
    <contour>
      <point x="319" y="395" type="curve" smooth="yes"/>
      <point x="418" y="395"/>
      <point x="491" y="443"/>
      <point x="503" y="515" type="curve" smooth="yes"/>
      <point x="510" y="560"/>
      <point x="486" y="612"/>
      <point x="416" y="634" type="curve" smooth="yes"/>
      <point x="347" y="656" type="line" smooth="yes"/>
      <point x="315" y="666"/>
      <point x="300" y="692"/>
      <point x="303" y="715" type="curve" smooth="yes"/>
      <point x="308" y="742"/>
      <point x="337" y="762"/>
      <point x="377" y="762" type="curve" smooth="yes"/>
      <point x="416" y="762"/>
      <point x="439" y="742"/>
      <point x="434" y="715" type="curve" smooth="yes"/>
      <point x="431" y="692"/>
      <point x="407" y="666"/>
      <point x="373" y="656" type="curve" smooth="yes"/>
      <point x="296" y="634" type="line" smooth="yes"/>
      <point x="221" y="612"/>
      <point x="180" y="561"/>
      <point x="173" y="515" type="curve" smooth="yes"/>
      <point x="161" y="443"/>
      <point x="220" y="395"/>
    </contour>
    <contour>
      <point x="331" y="473" type="curve" smooth="yes"/>
      <point x="288" y="473"/>
      <point x="263" y="494"/>
      <point x="268" y="524" type="curve" smooth="yes"/>
      <point x="272" y="548"/>
      <point x="297" y="577"/>
      <point x="333" y="588" type="curve" smooth="yes"/>
      <point x="417" y="614" type="line" smooth="yes"/>
      <point x="486" y="635"/>
      <point x="520" y="682"/>
      <point x="527" y="724" type="curve" smooth="yes"/>
      <point x="538" y="793"/>
      <point x="482" y="840"/>
      <point x="389" y="840" type="curve" smooth="yes"/>
      <point x="294" y="840"/>
      <point x="224" y="793"/>
      <point x="213" y="724" type="curve" smooth="yes"/>
      <point x="206" y="682"/>
      <point x="227" y="635"/>
      <point x="289" y="614" type="curve" smooth="yes"/>
      <point x="365" y="588" type="line" smooth="yes"/>
      <point x="397" y="577"/>
      <point x="415" y="548"/>
      <point x="411" y="524" type="curve" smooth="yes"/>
      <point x="406" y="494"/>
      <point x="374" y="473"/>
    </contour>
  </outline>
</glyph>
<glyph name="dong" format="2">
  <advance width="600"/>
  <unicode hex="20AB"/>
  <outline>
    <contour>
      <point x="207" y="50" type="curve" smooth="yes"/>
      <point x="297" y="50"/>
      <point x="362" y="107"/>
      <point x="377" y="200" type="curve"/>
      <point x="336" y="165" type="line"/>
      <point x="371" y="165" type="line"/>
      <point x="355" y="60" type="line"/>
      <point x="500" y="60" type="line"/>
      <point x="606" y="730" type="line"/>
      <point x="456" y="730" type="line"/>
      <point x="422" y="520" type="line"/>
      <point x="406" y="385" type="line"/>
      <point x="371" y="385" type="line"/>
      <point x="400" y="350" type="line"/>
      <point x="415" y="443"/>
      <point x="368" y="500"/>
      <point x="278" y="500" type="curve" smooth="yes"/>
      <point x="166" y="500"/>
      <point x="82" y="419"/>
      <point x="62" y="290" type="curve" smooth="yes"/>
      <point x="57" y="260" type="line" smooth="yes"/>
      <point x="37" y="132"/>
      <point x="96" y="50"/>
    </contour>
    <contour>
      <point x="0" y="-100" type="line"/>
      <point x="480" y="-100" type="line"/>
      <point x="496" y="0" type="line"/>
      <point x="16" y="0" type="line"/>
    </contour>
    <contour>
      <point x="282" y="180" type="curve" smooth="yes"/>
      <point x="225" y="180"/>
      <point x="199" y="209"/>
      <point x="208" y="265" type="curve" smooth="yes"/>
      <point x="211" y="285" type="line" smooth="yes"/>
      <point x="220" y="341"/>
      <point x="255" y="370"/>
      <point x="312" y="370" type="curve" smooth="yes"/>
      <point x="369" y="370"/>
      <point x="394" y="341"/>
      <point x="385" y="285" type="curve" smooth="yes"/>
      <point x="382" y="265" type="line" smooth="yes"/>
      <point x="373" y="209"/>
      <point x="339" y="180"/>
    </contour>
    <contour>
      <point x="334" y="555" type="line"/>
      <point x="644" y="555" type="line"/>
      <point x="658" y="645" type="line"/>
      <point x="348" y="645" type="line"/>
    </contour>
  </outline>
</glyph>
<glyph name="bitcoin" format="2">
  <advance width="600"/>
  <unicode hex="20BF"/>
  <outline>
    <contour>
      <point x="111" y="-140" type="line"/>
      <point x="176" y="-140" type="line"/>
      <point x="198" y="0" type="line"/>
      <point x="268" y="0" type="line"/>
      <point x="246" y="-140" type="line"/>
      <point x="311" y="-140" type="line"/>
      <point x="334" y="6" type="line"/>
      <point x="451" y="27"/>
      <point x="532" y="103"/>
      <point x="549" y="211" type="curve" smooth="yes"/>
      <point x="567" y="323"/>
      <point x="495" y="379"/>
      <point x="396" y="381" type="curve"/>
      <point x="488" y="386"/>
      <point x="571" y="446"/>
      <point x="586" y="543" type="curve" smooth="yes"/>
      <point x="601" y="636"/>
      <point x="548" y="702"/>
      <point x="448" y="723" type="curve"/>
      <point x="471" y="871" type="line"/>
      <point x="406" y="871" type="line"/>
      <point x="384" y="730" type="line"/>
      <point x="314" y="730" type="line"/>
      <point x="336" y="871" type="line"/>
      <point x="271" y="871" type="line"/>
      <point x="249" y="730" type="line"/>
      <point x="138" y="730" type="line"/>
      <point x="22" y="0" type="line"/>
      <point x="133" y="0" type="line"/>
    </contour>
    <contour>
      <point x="186" y="121" type="line"/>
      <point x="217" y="318" type="line"/>
      <point x="310" y="318" type="line" smooth="yes"/>
      <point x="375" y="318"/>
      <point x="409" y="280"/>
      <point x="400" y="219" type="curve" smooth="yes"/>
      <point x="390" y="158"/>
      <point x="344" y="121"/>
      <point x="279" y="121" type="curve" smooth="yes"/>
    </contour>
    <contour>
      <point x="236" y="436" type="line"/>
      <point x="263" y="609" type="line"/>
      <point x="351" y="609" type="line" smooth="yes"/>
      <point x="409" y="609"/>
      <point x="440" y="577"/>
      <point x="432" y="523" type="curve" smooth="yes"/>
      <point x="423" y="469"/>
      <point x="382" y="436"/>
      <point x="324" y="436" type="curve" smooth="yes"/>
    </contour>
  </outline>
</glyph>
<glyph name="NdoubleStruck" format="2">
  <advance width="600"/>
  <unicode hex="2115"/>
  <outline>
    <contour>
      <point x="90" y="0" type="line"/>
      <point x="139" y="0" type="line"/>
      <point x="139" y="430" type="line" smooth="yes"/>
      <point x="139" y="467"/>
      <point x="137" y="526"/>
      <point x="135" y="560" type="curve"/>
      <point x="381" y="0" type="line"/>
      <point x="510" y="0" type="line"/>
      <point x="510" y="730" type="line"/>
      <point x="461" y="730" type="line"/>
      <point x="461" y="300" type="line" smooth="yes"/>
      <point x="461" y="264"/>
      <point x="463" y="204"/>
      <point x="465" y="170" type="curve"/>
      <point x="219" y="730" type="line"/>
      <point x="90" y="730" type="line"/>
    </contour>
    <contour>
      <point x="410" y="39" type="line"/>
      <point x="124" y="691" type="line"/>
      <point x="190" y="691" type="line"/>
      <point x="476" y="39" type="line"/>
    </contour>
  </outline>
</glyph>
<glyph name="trademark" format="2">
  <advance width="600"/>
  <unicode hex="2122"/>
  <outline>
    <contour>
      <point x="125" y="370" type="line"/>
      <point x="195" y="370" type="line"/>
      <point x="241" y="665" type="line"/>
      <point x="341" y="665" type="line"/>
      <point x="352" y="730" type="line"/>
      <point x="87" y="730" type="line"/>
      <point x="76" y="665" type="line"/>
      <point x="171" y="665" type="line"/>
    </contour>
    <contour>
      <point x="319" y="370" type="line"/>
      <point x="384" y="370" type="line"/>
      <point x="409" y="531" type="line" smooth="yes"/>
      <point x="415" y="571"/>
      <point x="420" y="648"/>
      <point x="421" y="695" type="curve"/>
      <point x="423" y="670"/>
      <point x="427" y="624"/>
      <point x="432" y="590" type="curve" smooth="yes"/>
      <point x="444" y="517" type="line"/>
      <point x="504" y="517" type="line"/>
      <point x="536" y="590" type="line" smooth="yes"/>
      <point x="551" y="624"/>
      <point x="571" y="673"/>
      <point x="581" y="700" type="curve"/>
      <point x="566" y="646"/>
      <point x="545" y="562"/>
      <point x="539" y="525" type="curve" smooth="yes"/>
      <point x="515" y="370" type="line"/>
      <point x="580" y="370" type="line"/>
      <point x="637" y="730" type="line"/>
      <point x="552" y="730" type="line"/>
      <point x="507" y="628" type="line" smooth="yes"/>
      <point x="499" y="608"/>
      <point x="487" y="576"/>
      <point x="481" y="557" type="curve"/>
      <point x="480" y="576"/>
      <point x="478" y="608"/>
      <point x="475" y="628" type="curve" smooth="yes"/>
      <point x="463" y="730" type="line"/>
      <point x="376" y="730" type="line"/>
    </contour>
  </outline>
</glyph>
<glyph name="upDownArrow" format="2">
  <advance width="600"/>
  <unicode hex="2195"/>
  <outline>
    <contour>
      <point x="300" y="-170" type="line"/>
      <point x="590" y="77" type="line"/>
      <point x="590" y="182" type="line"/>
      <point x="405" y="24" type="line" smooth="yes"/>
      <point x="376" y="-1"/>
      <point x="356" y="-21"/>
      <point x="350" y="-30" type="curve"/>
      <point x="340" y="-30" type="line"/>
      <point x="342" y="-13"/>
      <point x="345" y="21"/>
      <point x="345" y="50" type="curve" smooth="yes"/>
      <point x="345" y="680" type="line" smooth="yes"/>
      <point x="345" y="709"/>
      <point x="342" y="743"/>
      <point x="340" y="760" type="curve"/>
      <point x="350" y="760" type="line"/>
      <point x="356" y="752"/>
      <point x="375" y="732"/>
      <point x="404" y="707" type="curve" smooth="yes"/>
      <point x="590" y="549" type="line"/>
      <point x="590" y="654" type="line"/>
      <point x="300" y="900" type="line"/>
      <point x="10" y="653" type="line"/>
      <point x="10" y="548" type="line"/>
      <point x="195" y="706" type="line" smooth="yes"/>
      <point x="224" y="731"/>
      <point x="244" y="751"/>
      <point x="250" y="760" type="curve"/>
      <point x="260" y="760" type="line"/>
      <point x="258" y="743"/>
      <point x="255" y="709"/>
      <point x="255" y="680" type="curve" smooth="yes"/>
      <point x="255" y="50" type="line" smooth="yes"/>
      <point x="255" y="21"/>
      <point x="258" y="-13"/>
      <point x="260" y="-30" type="curve"/>
      <point x="250" y="-30" type="line"/>
      <point x="244" y="-22"/>
      <point x="225" y="-2"/>
      <point x="196" y="23" type="curve" smooth="yes"/>
      <point x="10" y="181" type="line"/>
      <point x="10" y="76" type="line"/>
    </contour>
  </outline>
</glyph>
<glyph name="upBarbRightharpoon" format="2">
  <advance width="600"/>
  <unicode hex="21BE"/>
  <outline>
    <contour>
      <point x="255" y="-180" type="line"/>
      <point x="305" y="-180" type="line"/>
      <point x="305" y="725" type="line"/>
      <point x="500" y="536" type="line"/>
      <point x="500" y="601" type="line"/>
      <point x="255" y="839" type="line"/>
    </contour>
  </outline>
</glyph>
<glyph name="universal" format="2">
  <advance width="600"/>
  <unicode hex="2200"/>
  <outline>
    <contour>
      <point x="162" y="0" type="line"/>
      <point x="352" y="0" type="line"/>
      <point x="647" y="730" type="line"/>
      <point x="491" y="730" type="line"/>
      <point x="426" y="555" type="line"/>
      <point x="256" y="555" type="line"/>
      <point x="247" y="730" type="line"/>
      <point x="97" y="730" type="line"/>
    </contour>
    <contour>
      <point x="277" y="140" type="curve"/>
      <point x="264" y="435" type="line"/>
      <point x="382" y="435" type="line"/>
      <point x="320" y="268" type="line" smooth="yes"/>
      <point x="305" y="229"/>
      <point x="287" y="172"/>
    </contour>
  </outline>
</glyph>
<glyph name="partialdiff" format="2">
  <advance width="600"/>
  <unicode hex="2202"/>
  <outline>
    <contour>
      <point x="254" y="-10" type="curve" smooth="yes"/>
      <point x="402" y="-7"/>
      <point x="508" y="75"/>
      <point x="529" y="210" type="curve" smooth="yes"/>
      <point x="557" y="385" type="line" smooth="yes"/>
      <point x="582" y="541"/>
      <point x="483" y="674"/>
      <point x="402" y="730" type="curve"/>
      <point x="202" y="730" type="line"/>
      <point x="302" y="658"/>
      <point x="429" y="526"/>
      <point x="413" y="425" type="curve" smooth="yes"/>
      <point x="407" y="385" type="line"/>
      <point x="393" y="385" type="line"/>
      <point x="403" y="371" type="line"/>
      <point x="416" y="446"/>
      <point x="372" y="494"/>
      <point x="278" y="494" type="curve" smooth="yes"/>
      <point x="162" y="494"/>
      <point x="82" y="414"/>
      <point x="60" y="279" type="curve" smooth="yes"/>
      <point x="49" y="210" type="line" smooth="yes"/>
      <point x="28" y="75"/>
      <point x="108" y="-13"/>
    </contour>
    <contour>
      <point x="275" y="120" type="curve" smooth="yes"/>
      <point x="217" y="120"/>
      <point x="190" y="152"/>
      <point x="199" y="210" type="curve" smooth="yes"/>
      <point x="210" y="279" type="line" smooth="yes"/>
      <point x="219" y="337"/>
      <point x="256" y="369"/>
      <point x="314" y="369" type="curve" smooth="yes"/>
      <point x="373" y="369"/>
      <point x="399" y="337"/>
      <point x="390" y="279" type="curve" smooth="yes"/>
      <point x="379" y="210" type="line" smooth="yes"/>
      <point x="370" y="152"/>
      <point x="333" y="120"/>
    </contour>
  </outline>
</glyph>
<glyph name="summation" format="2">
  <advance width="600"/>
  <unicode hex="2211"/>
  <outline>
    <contour>
      <point x="-18" y="-180" type="line"/>
      <point x="467" y="-180" type="line"/>
      <point x="489" y="-45" type="line"/>
      <point x="188" y="-45" type="line"/>
      <point x="463" y="274" type="line"/>
      <point x="279" y="595" type="line"/>
      <point x="590" y="595" type="line"/>
      <point x="612" y="730" type="line"/>
      <point x="127" y="730" type="line"/>
      <point x="106" y="597" type="line"/>
      <point x="290" y="285" type="line"/>
      <point x="4" y="-47" type="line"/>
    </contour>
  </outline>
</glyph>
<glyph name="logicaland" format="2">
  <advance width="600"/>
  <unicode hex="2227"/>
  <outline>
    <contour>
      <point x="-9" y="50" type="line"/>
      <point x="148" y="50" type="line"/>
      <point x="322" y="424" type="line"/>
      <point x="386" y="50" type="line"/>
      <point x="537" y="50" type="line"/>
      <point x="436" y="550" type="line"/>
      <point x="248" y="550" type="line"/>
    </contour>
  </outline>
</glyph>
<glyph name="intersection" format="2">
  <advance width="600"/>
  <unicode hex="2229"/>
  <outline>
    <contour>
      <point x="345" y="630" type="line" smooth="yes"/>
      <point x="198" y="630"/>
      <point x="85" y="533"/>
      <point x="62" y="386" type="curve" smooth="yes"/>
      <point x="14" y="80" type="line"/>
      <point x="164" y="80" type="line"/>
      <point x="212" y="386" type="line" smooth="yes"/>
      <point x="222" y="450"/>
      <point x="266" y="490"/>
      <point x="324" y="490" type="curve" smooth="yes"/>
      <point x="344" y="490" type="line" smooth="yes"/>
      <point x="402" y="490"/>
      <point x="432" y="450"/>
      <point x="422" y="386" type="curve" smooth="yes"/>
      <point x="374" y="80" type="line"/>
      <point x="524" y="80" type="line"/>
      <point x="572" y="386" type="line" smooth="yes"/>
      <point x="595" y="533"/>
      <point x="514" y="630"/>
      <point x="367" y="630" type="curve" smooth="yes"/>
    </contour>
  </outline>
</glyph>
<glyph name="questionedequalto" format="2">
  <advance width="600"/>
  <unicode hex="225F"/>
  <outline>
    <contour>
      <point x="288" y="545" type="line"/>
      <point x="358" y="545" type="line"/>
      <point x="364" y="580" type="line"/>
      <point x="377" y="580" type="line" smooth="yes"/>
      <point x="453" y="580"/>
      <point x="509" y="623"/>
      <point x="520" y="695" type="curve" smooth="yes"/>
      <point x="531" y="766"/>
      <point x="490" y="815"/>
      <point x="414" y="815" type="curve" smooth="yes"/>
      <point x="269" y="815" type="line"/>
      <point x="256" y="735" type="line"/>
      <point x="392" y="735" type="line" smooth="yes"/>
      <point x="419" y="735"/>
      <point x="434" y="717"/>
      <point x="429" y="690" type="curve" smooth="yes"/>
      <point x="425" y="663"/>
      <point x="405" y="645"/>
      <point x="378" y="645" type="curve" smooth="yes"/>
      <point x="304" y="645" type="line"/>
    </contour>
    <contour>
      <point x="36" y="0" type="line"/>
      <point x="476" y="0" type="line"/>
      <point x="498" y="140" type="line"/>
      <point x="58" y="140" type="line"/>
    </contour>
    <contour>
      <point x="76" y="250" type="line"/>
      <point x="516" y="250" type="line"/>
      <point x="538" y="390" type="line"/>
      <point x="98" y="390" type="line"/>
    </contour>
    <contour>
      <point x="307" y="433" type="curve" smooth="yes"/>
      <point x="336" y="433"/>
      <point x="357" y="449"/>
      <point x="361" y="475" type="curve" smooth="yes"/>
      <point x="365" y="499"/>
      <point x="349" y="515"/>
      <point x="320" y="515" type="curve" smooth="yes"/>
      <point x="290" y="515"/>
      <point x="267" y="499"/>
      <point x="263" y="475" type="curve" smooth="yes"/>
      <point x="259" y="449"/>
      <point x="277" y="433"/>
    </contour>
  </outline>
</glyph>
<glyph name="notidentical" format="2">
  <advance width="600"/>
  <unicode hex="2262"/>
  <outline>
    <contour>
      <point x="55" y="-110" type="line"/>
      <point x="146" y="-110" type="line"/>
      <point x="564" y="770" type="line"/>
      <point x="473" y="770" type="line"/>
    </contour>
    <component base="equivalence" xOffset="1"/>
  </outline>
</glyph>
<glyph name="notsuperset" format="2">
  <advance width="600"/>
  <unicode hex="2285"/>
  <outline>
    <contour>
      <point x="61" y="-60" type="line"/>
      <point x="152" y="-60" type="line"/>
      <point x="565" y="780" type="line"/>
      <point x="474" y="780" type="line"/>
    </contour>
    <component base="superset"/>
  </outline>
</glyph>
<glyph name="multisetunion" format="2">
  <advance width="600"/>
  <unicode hex="228E"/>
  <outline>
    <contour>
      <point x="280" y="85" type="line"/>
      <point x="320" y="85" type="line"/>
      <point x="320" y="206" type="line"/>
      <point x="440" y="206" type="line"/>
      <point x="440" y="244" type="line"/>
      <point x="320" y="244" type="line"/>
      <point x="320" y="365" type="line"/>
      <point x="280" y="365" type="line"/>
      <point x="280" y="244" type="line"/>
      <point x="160" y="244" type="line"/>
      <point x="160" y="206" type="line"/>
      <point x="280" y="206" type="line"/>
    </contour>
    <contour>
      <point x="70" y="730" type="line"/>
      <point x="70" y="200" type="line" smooth="yes"/>
      <point x="70" y="70"/>
      <point x="141" y="0"/>
      <point x="273" y="0" type="curve" smooth="yes"/>
      <point x="327" y="0" type="line" smooth="yes"/>
      <point x="459" y="0"/>
      <point x="530" y="70"/>
      <point x="530" y="200" type="curve" smooth="yes"/>
      <point x="530" y="730" type="line"/>
      <point x="480" y="730" type="line"/>
      <point x="480" y="200" type="line" smooth="yes"/>
      <point x="480" y="101"/>
      <point x="424" y="45"/>
      <point x="325" y="45" type="curve" smooth="yes"/>
      <point x="275" y="45" type="line" smooth="yes"/>
      <point x="176" y="45"/>
      <point x="120" y="101"/>
      <point x="120" y="200" type="curve" smooth="yes"/>
      <point x="120" y="730" type="line"/>
    </contour>
  </outline>
</glyph>
<glyph name="squareimageof" format="2">
  <advance width="600"/>
  <unicode hex="228F"/>
  <outline>
    <contour>
      <point x="-7" y="75" type="line"/>
      <point x="543" y="75" type="line"/>
      <point x="565" y="215" type="line"/>
      <point x="164" y="215" type="line"/>
      <point x="200" y="445" type="line"/>
      <point x="601" y="445" type="line"/>
      <point x="624" y="585" type="line"/>
      <point x="74" y="585" type="line"/>
    </contour>
  </outline>
</glyph>
<glyph name="squareimageoforequalto" format="2">
  <advance width="600"/>
  <unicode hex="2291"/>
  <outline>
    <contour>
      <point x="9" y="185" type="line"/>
      <point x="559" y="185" type="line"/>
      <point x="581" y="325" type="line"/>
      <point x="181" y="325" type="line"/>
      <point x="218" y="555" type="line"/>
      <point x="618" y="555" type="line"/>
      <point x="640" y="695" type="line"/>
      <point x="90" y="695" type="line"/>
    </contour>
    <contour>
      <point x="-20" y="0" type="line"/>
      <point x="530" y="0" type="line"/>
      <point x="552" y="140" type="line"/>
      <point x="2" y="140" type="line"/>
    </contour>
  </outline>
</glyph>
<glyph name="squarecap" format="2">
  <advance width="600"/>
  <unicode hex="2293"/>
  <outline>
    <contour>
      <point x="14" y="80" type="line"/>
      <point x="164" y="80" type="line"/>
      <point x="229" y="490" type="line"/>
      <point x="439" y="490" type="line"/>
      <point x="374" y="80" type="line"/>
      <point x="524" y="80" type="line"/>
      <point x="611" y="630" type="line"/>
      <point x="101" y="630" type="line"/>
    </contour>
  </outline>
</glyph>
<glyph name="multiply.circled" format="2">
  <advance width="600"/>
  <unicode hex="2297"/>
  <outline>
    <contour>
      <point x="309" y="20" type="curve" smooth="yes"/>
      <point x="486" y="20"/>
      <point x="619" y="153"/>
      <point x="619" y="330" type="curve" smooth="yes"/>
      <point x="619" y="507"/>
      <point x="486" y="640"/>
      <point x="309" y="640" type="curve" smooth="yes"/>
      <point x="132" y="640"/>
      <point x="-1" y="507"/>
      <point x="-1" y="330" type="curve" smooth="yes"/>
      <point x="-1" y="153"/>
      <point x="132" y="20"/>
    </contour>
    <contour>
      <point x="309" y="70" type="curve" smooth="yes"/>
      <point x="161" y="70"/>
      <point x="49" y="182"/>
      <point x="49" y="330" type="curve" smooth="yes"/>
      <point x="49" y="478"/>
      <point x="161" y="590"/>
      <point x="309" y="590" type="curve" smooth="yes"/>
      <point x="457" y="590"/>
      <point x="569" y="478"/>
      <point x="569" y="330" type="curve" smooth="yes"/>
      <point x="569" y="182"/>
      <point x="457" y="70"/>
    </contour>
    <contour>
      <point x="166" y="82" type="line"/>
      <point x="309" y="226" type="line"/>
      <point x="452" y="82" type="line"/>
      <point x="556" y="184" type="line"/>
      <point x="411" y="328" type="line"/>
      <point x="562" y="478" type="line"/>
      <point x="457" y="579" type="line"/>
      <point x="309" y="431" type="line"/>
      <point x="166" y="574" type="line"/>
      <point x="59" y="475" type="line"/>
      <point x="206" y="328" type="line"/>
      <point x="67" y="189" type="line"/>
    </contour>
  </outline>
</glyph>
<glyph name="fraction.circled" format="2">
  <advance width="600"/>
  <unicode hex="2298"/>
  <outline>
    <contour>
      <point x="309" y="20" type="curve" smooth="yes"/>
      <point x="486" y="20"/>
      <point x="619" y="153"/>
      <point x="619" y="330" type="curve" smooth="yes"/>
      <point x="619" y="507"/>
      <point x="486" y="640"/>
      <point x="309" y="640" type="curve" smooth="yes"/>
      <point x="132" y="640"/>
      <point x="-1" y="507"/>
      <point x="-1" y="330" type="curve" smooth="yes"/>
      <point x="-1" y="153"/>
      <point x="132" y="20"/>
    </contour>
    <contour>
      <point x="309" y="70" type="curve" smooth="yes"/>
      <point x="161" y="70"/>
      <point x="49" y="182"/>
      <point x="49" y="330" type="curve" smooth="yes"/>
      <point x="49" y="478"/>
      <point x="161" y="590"/>
      <point x="309" y="590" type="curve" smooth="yes"/>
      <point x="457" y="590"/>
      <point x="569" y="478"/>
      <point x="569" y="330" type="curve" smooth="yes"/>
      <point x="569" y="182"/>
      <point x="457" y="70"/>
    </contour>
    <contour>
      <point x="118" y="109" type="line"/>
      <point x="195" y="70" type="line"/>
      <point x="502" y="557" type="line"/>
      <point x="428" y="602" type="line"/>
    </contour>
  </outline>
</glyph>
<glyph name="squaredtimes" format="2">
  <advance width="600"/>
  <unicode hex="22A0"/>
  <outline>
    <contour>
      <point x="0" y="30" type="line"/>
      <point x="600" y="30" type="line"/>
      <point x="600" y="630" type="line"/>
      <point x="0" y="630" type="line"/>
    </contour>
    <contour>
      <point x="50" y="80" type="line"/>
      <point x="50" y="580" type="line"/>
      <point x="550" y="580" type="line"/>
      <point x="550" y="80" type="line"/>
    </contour>
    <contour>
      <point x="225" y="60" type="line"/>
      <point x="375" y="60" type="line"/>
      <point x="375" y="260" type="line"/>
      <point x="575" y="260" type="line"/>
      <point x="575" y="400" type="line"/>
      <point x="375" y="400" type="line"/>
      <point x="375" y="610" type="line"/>
      <point x="225" y="610" type="line"/>
      <point x="225" y="400" type="line"/>
      <point x="25" y="400" type="line"/>
      <point x="25" y="260" type="line"/>
      <point x="225" y="260" type="line"/>
    </contour>
  </outline>
</glyph>
<glyph name="tackdown" format="2">
  <advance width="600"/>
  <unicode hex="22A4"/>
  <outline>
    <contour>
      <point x="225" y="0" type="line"/>
      <point x="375" y="0" type="line"/>
      <point x="375" y="600" type="line"/>
      <point x="225" y="600" type="line"/>
    </contour>
    <contour>
      <point x="0" y="460" type="line"/>
      <point x="600" y="460" type="line"/>
      <point x="600" y="600" type="line"/>
      <point x="0" y="600" type="line"/>
    </contour>
  </outline>
</glyph>
<glyph name="normalsubgroupoforequalto" format="2">
  <advance width="600"/>
  <unicode hex="22B4"/>
  <outline>
    <contour>
      <point x="514" y="174" type="line"/>
      <point x="602" y="734" type="line"/>
      <point x="109" y="525" type="line"/>
      <point x="87" y="382" type="line"/>
    </contour>
    <contour>
      <point x="26" y="0" type="line"/>
      <point x="486" y="0" type="line"/>
      <point x="507" y="130" type="line"/>
      <point x="47" y="130" type="line"/>
    </contour>
    <contour>
      <point x="433" y="355" type="line"/>
      <point x="278" y="428" type="line" smooth="yes"/>
      <point x="253" y="440"/>
      <point x="221" y="447"/>
      <point x="205" y="450" type="curve"/>
      <point x="222" y="453"/>
      <point x="257" y="461"/>
      <point x="286" y="473" type="curve" smooth="yes"/>
      <point x="463" y="546" type="line"/>
    </contour>
  </outline>
</glyph>
<glyph name="rightnormalfactorsemidirectproduct" format="2">
  <advance width="600"/>
  <unicode hex="22CA"/>
  <outline>
    <contour>
      <point x="0" y="600" type="line"/>
      <point x="263" y="359" type="line"/>
      <point x="0" y="119" type="line"/>
      <point x="34" y="84" type="line"/>
      <point x="299" y="325" type="line"/>
      <point x="600" y="50" type="line"/>
      <point x="600" y="667" type="line"/>
      <point x="300" y="394" type="line"/>
      <point x="35" y="637" type="line"/>
    </contour>
    <contour>
      <point x="550" y="165" type="line"/>
      <point x="336" y="360" type="line"/>
      <point x="550" y="555" type="line"/>
    </contour>
  </outline>
</glyph>
<glyph name="leftCeiling" format="2">
  <advance width="600"/>
  <unicode hex="2308"/>
  <outline>
    <contour>
      <point x="109" y="-110" type="line"/>
      <point x="259" y="-110" type="line"/>
      <point x="385" y="690" type="line"/>
      <point x="540" y="690" type="line"/>
      <point x="562" y="830" type="line"/>
      <point x="257" y="830" type="line"/>
    </contour>
  </outline>
</glyph>
<glyph name="rightCeiling" format="2">
  <advance width="600"/>
  <unicode hex="2309"/>
  <outline>
    <contour>
      <point x="219" y="-110" type="line"/>
      <point x="369" y="-110" type="line"/>
      <point x="517" y="830" type="line"/>
      <point x="212" y="830" type="line"/>
      <point x="190" y="690" type="line"/>
      <point x="345" y="690" type="line"/>
    </contour>
  </outline>
</glyph>
<glyph name="boxLightUpAndRight" format="2">
  <advance width="600"/>
  <unicode hex="2514"/>
  <outline>
    <contour>
      <point x="250" y="320" type="line"/>
      <point x="620" y="320" type="line"/>
      <point x="620" y="420" type="line"/>
      <point x="350" y="420" type="line"/>
      <point x="350" y="1120" type="line"/>
      <point x="250" y="1120" type="line"/>
    </contour>
  </outline>
</glyph>
<glyph name="boxLightUpAndHorizontal" format="2">
  <advance width="600"/>
  <unicode hex="2534"/>
  <outline>
    <contour>
      <point x="-20" y="320" type="line"/>
      <point x="620" y="320" type="line"/>
      <point x="620" y="420" type="line"/>
      <point x="350" y="420" type="line"/>
      <point x="350" y="1120" type="line"/>
      <point x="250" y="1120" type="line"/>
      <point x="250" y="420" type="line"/>
      <point x="-20" y="420" type="line"/>
    </contour>
  </outline>
</glyph>
<glyph name="boxLeftHeavyAndRightVerticalLight" format="2">
  <advance width="600"/>
  <unicode hex="253D"/>
  <outline>
    <contour>
      <point x="250" y="-400" type="line"/>
      <point x="350" y="-400" type="line"/>
      <point x="350" y="320" type="line"/>
      <point x="620" y="320" type="line"/>
      <point x="620" y="420" type="line"/>
      <point x="350" y="420" type="line"/>
      <point x="350" y="1120" type="line"/>
      <point x="250" y="1120" type="line"/>
      <point x="250" y="470" type="line"/>
      <point x="-20" y="470" type="line"/>
      <point x="-20" y="270" type="line"/>
      <point x="250" y="270" type="line"/>
    </contour>
  </outline>
</glyph>
<glyph name="boxVerticalLightAndHorizontalHeavy" format="2">
  <advance width="600"/>
  <unicode hex="253F"/>
  <outline>
    <contour>
      <point x="250" y="-400" type="line"/>
      <point x="350" y="-400" type="line"/>
      <point x="350" y="270" type="line"/>
      <point x="620" y="270" type="line"/>
      <point x="620" y="470" type="line"/>
      <point x="350" y="470" type="line"/>
      <point x="350" y="1120" type="line"/>
      <point x="250" y="1120" type="line"/>
      <point x="250" y="470" type="line"/>
      <point x="-20" y="470" type="line"/>
      <point x="-20" y="270" type="line"/>
      <point x="250" y="270" type="line"/>
    </contour>
  </outline>
</glyph>
<glyph name="boxHeavyDoubleDashHorizontal" format="2">
  <advance width="600"/>
  <unicode hex="254D"/>
  <outline>
    <contour>
      <point x="375" y="270" type="line"/>
      <point x="525" y="270" type="line"/>
      <point x="525" y="470" type="line"/>
      <point x="375" y="470" type="line"/>
    </contour>
    <contour>
      <point x="75" y="270" type="line"/>
      <point x="225" y="270" type="line"/>
      <point x="225" y="470" type="line"/>
      <point x="75" y="470" type="line"/>
    </contour>
  </outline>
</glyph>
<glyph name="boxDoubleUpAndLeft" format="2">
  <advance width="600"/>
  <unicode hex="255D"/>
  <outline>
    <contour>
      <point x="-20" y="220" type="line"/>
      <point x="450" y="220" type="line"/>
      <point x="450" y="1120" type="line"/>
      <point x="350" y="1120" type="line"/>
      <point x="350" y="320" type="line"/>
      <point x="-20" y="320" type="line"/>
    </contour>
    <contour>
      <point x="-20" y="420" type="line"/>
      <point x="250" y="420" type="line"/>
      <point x="250" y="1120" type="line"/>
      <point x="150" y="1120" type="line"/>
      <point x="150" y="520" type="line"/>
      <point x="-20" y="520" type="line"/>
    </contour>
  </outline>
</glyph>
<glyph name="boxLightDiagonalUpperRightToLowerLeft" format="2">
  <advance width="600"/>
  <unicode hex="2571"/>
  <outline>
    <contour>
      <point x="-20" y="-160" type="line"/>
      <point x="60" y="-160" type="line"/>
      <point x="620" y="840" type="line"/>
      <point x="620" y="880" type="line"/>
      <point x="540" y="880" type="line"/>
      <point x="-20" y="-120" type="line"/>
    </contour>
  </outline>
</glyph>
<glyph name="boxHeavyUp" format="2">
  <advance width="600"/>
  <unicode hex="2579"/>
  <outline>
    <contour>
      <point x="200" y="320" type="line"/>
      <point x="400" y="320" type="line"/>
      <point x="400" y="1120" type="line"/>
      <point x="200" y="1120" type="line"/>
    </contour>
  </outline>
</glyph>
<glyph name="whiteDiamond" format="2">
  <advance width="600"/>
  <unicode hex="25C7"/>
  <outline>
    <contour>
      <point x="300" y="50" type="line"/>
      <point x="610" y="360" type="line"/>
      <point x="300" y="671" type="line"/>
      <point x="-10" y="360" type="line"/>
    </contour>
    <contour>
      <point x="300" y="128" type="line"/>
      <point x="68" y="360" type="line"/>
      <point x="300" y="593" type="line"/>
      <point x="532" y="360" type="line"/>
    </contour>
  </outline>
</glyph>
<glyph name="upperRightBlackCircle" format="2">
  <advance width="600"/>
  <unicode hex="25D4"/>
  <outline>
    <contour>
      <point x="300" y="50" type="curve" smooth="yes"/>
      <point x="477" y="50"/>
      <point x="610" y="183"/>
      <point x="610" y="360" type="curve" smooth="yes"/>
      <point x="610" y="537"/>
      <point x="477" y="670"/>
      <point x="300" y="670" type="curve" smooth="yes"/>
      <point x="123" y="670"/>
      <point x="-10" y="537"/>
      <point x="-10" y="360" type="curve" smooth="yes"/>
      <point x="-10" y="183"/>
      <point x="123" y="50"/>
    </contour>
    <contour>
      <point x="300" y="100" type="curve" smooth="yes"/>
      <point x="152" y="100"/>
      <point x="40" y="212"/>
      <point x="40" y="360" type="curve" smooth="yes"/>
      <point x="40" y="508"/>
      <point x="152" y="620"/>
      <point x="300" y="620" type="curve"/>
      <point x="300" y="557"/>
      <point x="300" y="400"/>
      <point x="300" y="360" type="curve"/>
      <point x="348" y="360"/>
      <point x="470" y="360"/>
      <point x="560" y="360" type="curve"/>
      <point x="560" y="212"/>
      <point x="448" y="100"/>
    </contour>
  </outline>
</glyph>
<glyph name="flat-musical" format="2">
  <advance width="600"/>
  <unicode hex="266D"/>
  <outline>
    <contour>
      <point x="147" y="-10" type="line"/>
      <point x="361" y="72" type="line" smooth="yes"/>
      <point x="470" y="114"/>
      <point x="537" y="191"/>
      <point x="537" y="275" type="curve" smooth="yes"/>
      <point x="537" y="340" type="line" smooth="yes"/>
      <point x="537" y="452"/>
      <point x="486" y="525"/>
      <point x="407" y="525" type="curve" smooth="yes"/>
      <point x="342" y="525"/>
      <point x="297" y="476"/>
      <point x="297" y="400" type="curve"/>
      <point x="308" y="427" type="line"/>
      <point x="297" y="427" type="line"/>
      <point x="297" y="730" type="line"/>
      <point x="147" y="730" type="line"/>
    </contour>
    <contour>
      <point x="297" y="177" type="line"/>
      <point x="297" y="340" type="line" smooth="yes"/>
      <point x="297" y="375"/>
      <point x="313" y="395"/>
      <point x="342" y="395" type="curve" smooth="yes"/>
      <point x="371" y="395"/>
      <point x="387" y="375"/>
      <point x="387" y="340" type="curve" smooth="yes"/>
      <point x="387" y="275" type="line" smooth="yes"/>
      <point x="387" y="235"/>
      <point x="360" y="200"/>
      <point x="316" y="184" type="curve" smooth="yes"/>
    </contour>
  </outline>
</glyph>
<glyph name="warningSign" format="2">
  <advance width="600"/>
  <unicode hex="26A0"/>
  <outline>
    <contour>
      <point x="300" y="96" type="curve" smooth="yes"/>
      <point x="302" y="96" type="line" smooth="yes"/>
      <point x="322" y="96"/>
      <point x="335" y="109"/>
      <point x="335" y="130" type="curve" smooth="yes"/>
      <point x="335" y="151"/>
      <point x="322" y="164"/>
      <point x="302" y="164" type="curve" smooth="yes"/>
      <point x="300" y="164" type="line" smooth="yes"/>
      <point x="280" y="164"/>
      <point x="267" y="151"/>
      <point x="267" y="130" type="curve" smooth="yes"/>
      <point x="267" y="109"/>
      <point x="280" y="96"/>
    </contour>
    <contour>
      <point x="290" y="204" type="line"/>
      <point x="310" y="204" type="line"/>
      <point x="325" y="311" type="line"/>
      <point x="325" y="368" type="line"/>
      <point x="275" y="368" type="line"/>
      <point x="275" y="311" type="line"/>
    </contour>
    <contour>
      <point x="70" y="0" type="curve" smooth="yes"/>
      <point x="530" y="0" type="line" smooth="yes"/>
      <point x="576" y="0"/>
      <point x="595" y="30"/>
      <point x="574" y="71" type="curve" smooth="yes"/>
      <point x="341" y="529" type="line" smooth="yes"/>
      <point x="318" y="573"/>
      <point x="282" y="573"/>
      <point x="259" y="529" type="curve" smooth="yes"/>
      <point x="26" y="71" type="line" smooth="yes"/>
      <point x="5" y="30"/>
      <point x="24" y="0"/>
    </contour>
    <contour>
      <point x="73" y="50" type="line"/>
      <point x="300" y="497" type="line"/>
      <point x="527" y="50" type="line"/>
    </contour>
  </outline>
</glyph>
<glyph name="sixPointedBlackStar" format="2">
  <advance width="600"/>
  <unicode hex="2736"/>
  <outline>
    <contour>
      <point x="39" y="210" type="line"/>
      <point x="210" y="360" type="line"/>
      <point x="40" y="510" type="line"/>
      <point x="255" y="437" type="line"/>
      <point x="300" y="660" type="line"/>
      <point x="344" y="438" type="line"/>
      <point x="559" y="510" type="line"/>
      <point x="389" y="360" type="line"/>
      <point x="560" y="210" type="line"/>
      <point x="345" y="283" type="line"/>
      <point x="300" y="60" type="line"/>
      <point x="255" y="283" type="line"/>
    </contour>
  </outline>
</glyph>
<glyph name="rightHeavyRoundTippedArrow" format="2">
  <advance width="600"/>
  <unicode hex="279C"/>
  <outline>
    <contour>
      <point x="20" y="330" type="curve" smooth="yes"/>
      <point x="20" y="291"/>
      <point x="51" y="260"/>
      <point x="90" y="260" type="curve" smooth="yes"/>
      <point x="295" y="260" type="line" smooth="yes"/>
      <point x="327" y="260"/>
      <point x="340" y="261"/>
      <point x="370" y="276" type="curve"/>
      <point x="263" y="139" type="line" smooth="yes"/>
      <point x="251" y="124"/>
      <point x="247" y="108"/>
      <point x="247" y="92" type="curve" smooth="yes"/>
      <point x="247" y="72"/>
      <point x="255" y="53"/>
      <point x="272" y="40" type="curve" smooth="yes"/>
      <point x="286" y="30"/>
      <point x="301" y="25"/>
      <point x="317" y="25" type="curve" smooth="yes"/>
      <point x="337" y="25"/>
      <point x="357" y="34"/>
      <point x="371" y="51" type="curve" smooth="yes"/>
      <point x="590" y="330" type="line"/>
      <point x="371" y="608" type="line" smooth="yes"/>
      <point x="357" y="626"/>
      <point x="337" y="635"/>
      <point x="316" y="635" type="curve" smooth="yes"/>
      <point x="301" y="635"/>
      <point x="286" y="630"/>
      <point x="273" y="620" type="curve" smooth="yes"/>
      <point x="255" y="606"/>
      <point x="246" y="586"/>
      <point x="246" y="565" type="curve" smooth="yes"/>
      <point x="246" y="550"/>
      <point x="251" y="535"/>
      <point x="261" y="522" type="curve" smooth="yes"/>
      <point x="370" y="385" type="line"/>
      <point x="339" y="400"/>
      <point x="327" y="400"/>
      <point x="295" y="400" type="curve" smooth="yes"/>
      <point x="90" y="400" type="line" smooth="yes"/>
      <point x="51" y="400"/>
      <point x="20" y="369"/>
    </contour>
  </outline>
</glyph>
<glyph name="leftsshapedbagdelimiter" format="2">
  <advance width="600"/>
  <unicode hex="27C5"/>
  <outline>
    <contour>
      <point x="159" y="608" type="line"/>
      <point x="307" y="608" type="line"/>
      <point x="311" y="635" type="line"/>
      <point x="317" y="675"/>
      <point x="347" y="700"/>
      <point x="387" y="700" type="curve" smooth="yes"/>
      <point x="427" y="700"/>
      <point x="448" y="675"/>
      <point x="442" y="635" type="curve" smooth="yes"/>
      <point x="437" y="605"/>
      <point x="418" y="566"/>
      <point x="351" y="496" type="curve" smooth="yes"/>
      <point x="198" y="334" type="line" smooth="yes"/>
      <point x="130" y="262"/>
      <point x="75" y="191"/>
      <point x="60" y="98" type="curve" smooth="yes"/>
      <point x="41" y="-23"/>
      <point x="102" y="-110"/>
      <point x="256" y="-110" type="curve" smooth="yes"/>
      <point x="462" y="-110" type="line"/>
      <point x="484" y="30" type="line"/>
      <point x="286" y="30" type="line" smooth="yes"/>
      <point x="229" y="30"/>
      <point x="203" y="63"/>
      <point x="210" y="108" type="curve" smooth="yes"/>
      <point x="218" y="156"/>
      <point x="261" y="203"/>
      <point x="362" y="311" type="curve" smooth="yes"/>
      <point x="475" y="432" type="line" smooth="yes"/>
      <point x="563" y="526"/>
      <point x="583" y="594"/>
      <point x="590" y="635" type="curve" smooth="yes"/>
      <point x="610" y="761"/>
      <point x="537" y="840"/>
      <point x="409" y="840" type="curve" smooth="yes"/>
      <point x="278" y="840"/>
      <point x="183" y="761"/>
      <point x="163" y="635" type="curve"/>
    </contour>
  </outline>
</glyph>
<glyph name="rightsshapedbagdelimiter" format="2">
  <advance width="600"/>
  <unicode hex="27C6"/>
  <outline>
    <contour>
      <point x="25" y="-110" type="line"/>
      <point x="231" y="-110" type="line" smooth="yes"/>
      <point x="385" y="-110"/>
      <point x="474" y="-23"/>
      <point x="493" y="98" type="curve" smooth="yes"/>
      <point x="508" y="191"/>
      <point x="475" y="262"/>
      <point x="430" y="334" type="curve" smooth="yes"/>
      <point x="328" y="496" type="line" smooth="yes"/>
      <point x="284" y="566"/>
      <point x="277" y="605"/>
      <point x="282" y="635" type="curve" smooth="yes"/>
      <point x="288" y="675"/>
      <point x="317" y="700"/>
      <point x="357" y="700" type="curve" smooth="yes"/>
      <point x="397" y="700"/>
      <point x="415" y="675"/>
      <point x="411" y="635" type="curve" smooth="yes"/>
      <point x="408" y="608" type="line"/>
      <point x="556" y="608" type="line"/>
      <point x="559" y="635" type="line" smooth="yes"/>
      <point x="573" y="762"/>
      <point x="510" y="840"/>
      <point x="379" y="840" type="curve" smooth="yes"/>
      <point x="251" y="840"/>
      <point x="153" y="761"/>
      <point x="133" y="635" type="curve" smooth="yes"/>
      <point x="127" y="594"/>
      <point x="126" y="526"/>
      <point x="184" y="432" type="curve" smooth="yes"/>
      <point x="259" y="311" type="line" smooth="yes"/>
      <point x="326" y="203"/>
      <point x="353" y="156"/>
      <point x="346" y="108" type="curve" smooth="yes"/>
      <point x="339" y="63"/>
      <point x="303" y="30"/>
      <point x="246" y="30" type="curve" smooth="yes"/>
      <point x="48" y="30" type="line"/>
    </contour>
  </outline>
</glyph>
<glyph name="leftRightLongArrow" format="2">
  <advance width="600"/>
  <unicode hex="27F7"/>
  <outline>
    <contour>
      <point x="127" y="75" type="line"/>
      <point x="232" y="75" type="line"/>
      <point x="95" y="239" type="line" smooth="yes"/>
      <point x="78" y="259"/>
      <point x="59" y="278"/>
      <point x="50" y="286" type="curve"/>
      <point x="50" y="295" type="line"/>
      <point x="67" y="293"/>
      <point x="98" y="290"/>
      <point x="120" y="290" type="curve" smooth="yes"/>
      <point x="480" y="290" type="line" smooth="yes"/>
      <point x="502" y="290"/>
      <point x="533" y="292"/>
      <point x="550" y="294" type="curve"/>
      <point x="550" y="285" type="line"/>
      <point x="538" y="276"/>
      <point x="518" y="256"/>
      <point x="505" y="240" type="curve" smooth="yes"/>
      <point x="371" y="75" type="line"/>
      <point x="474" y="75" type="line"/>
      <point x="680" y="330" type="line"/>
      <point x="473" y="585" type="line"/>
      <point x="368" y="585" type="line"/>
      <point x="505" y="421" type="line" smooth="yes"/>
      <point x="522" y="401"/>
      <point x="541" y="382"/>
      <point x="550" y="374" type="curve"/>
      <point x="550" y="365" type="line"/>
      <point x="533" y="367"/>
      <point x="502" y="370"/>
      <point x="480" y="370" type="curve" smooth="yes"/>
      <point x="120" y="370" type="line" smooth="yes"/>
      <point x="98" y="370"/>
      <point x="67" y="368"/>
      <point x="50" y="366" type="curve"/>
      <point x="50" y="375" type="line"/>
      <point x="62" y="384"/>
      <point x="82" y="404"/>
      <point x="95" y="420" type="curve" smooth="yes"/>
      <point x="229" y="585" type="line"/>
      <point x="126" y="585" type="line"/>
      <point x="-80" y="330" type="line"/>
    </contour>
  </outline>
</glyph>
<glyph name="F.half" format="2">
  <advance width="400"/>
  <outline>
    <contour>
      <point x="4" y="0" type="line"/>
      <point x="90" y="0" type="line"/>
      <point x="108" y="112" type="line"/>
      <point x="300" y="112" type="line"/>
      <point x="312" y="192" type="line"/>
      <point x="120" y="192" type="line"/>
      <point x="130" y="255" type="line"/>
      <point x="352" y="255" type="line"/>
      <point x="365" y="335" type="line"/>
      <point x="57" y="335" type="line"/>
    </contour>
  </outline>
</glyph>
<glyph name="M.half" format="2">
  <advance width="400"/>
  <outline>
    <contour>
      <point x="-24" y="0" type="line"/>
      <point x="56" y="0" type="line"/>
      <point x="71" y="95" type="line" smooth="yes"/>
      <point x="87" y="198"/>
      <point x="93" y="235"/>
      <point x="91" y="286" type="curve"/>
      <point x="129" y="96" type="line"/>
      <point x="215" y="96" type="line"/>
      <point x="311" y="289" type="line"/>
      <point x="294" y="238"/>
      <point x="285" y="185"/>
      <point x="271" y="95" type="curve" smooth="yes"/>
      <point x="256" y="0" type="line"/>
      <point x="336" y="0" type="line"/>
      <point x="389" y="335" type="line"/>
      <point x="263" y="335" type="line"/>
      <point x="203" y="213" type="line" smooth="yes"/>
      <point x="187" y="180"/>
      <point x="184" y="169"/>
      <point x="180" y="153" type="curve"/>
      <point x="180" y="169"/>
      <point x="180" y="180"/>
      <point x="174" y="212" type="curve" smooth="yes"/>
      <point x="150" y="335" type="line"/>
      <point x="29" y="335" type="line"/>
    </contour>
  </outline>
</glyph>
<glyph name="O.half" format="2">
  <advance width="400"/>
  <outline>
    <contour>
      <point x="155" y="-5" type="curve" smooth="yes"/>
      <point x="270" y="-5"/>
      <point x="367" y="84"/>
      <point x="367" y="196" type="curve" smooth="yes"/>
      <point x="367" y="280"/>
      <point x="304" y="340"/>
      <point x="210" y="340" type="curve" smooth="yes"/>
      <point x="96" y="340"/>
      <point x="-4" y="251"/>
      <point x="-4" y="140" type="curve" smooth="yes"/>
      <point x="-4" y="56"/>
      <point x="60" y="-5"/>
    </contour>
    <contour>
      <point x="168" y="73" type="curve" smooth="yes"/>
      <point x="118" y="73"/>
      <point x="85" y="106"/>
      <point x="85" y="152" type="curve" smooth="yes"/>
      <point x="85" y="213"/>
      <point x="137" y="262"/>
      <point x="197" y="262" type="curve" smooth="yes"/>
      <point x="245" y="262"/>
      <point x="278" y="229"/>
      <point x="278" y="184" type="curve" smooth="yes"/>
      <point x="278" y="122"/>
      <point x="228" y="73"/>
    </contour>
  </outline>
</glyph>
<glyph name="T.half" format="2">
  <advance width="400"/>
  <outline>
    <contour>
      <point x="113" y="0" type="line"/>
      <point x="199" y="0" type="line"/>
      <point x="239" y="255" type="line"/>
      <point x="381" y="255" type="line"/>
      <point x="394" y="335" type="line"/>
      <point x="24" y="335" type="line"/>
      <point x="11" y="255" type="line"/>
      <point x="153" y="255" type="line"/>
    </contour>
  </outline>
</glyph>
<glyph name=".notdef" format="2">
  <advance width="600"/>
  <outline>
    <contour>
      <point x="90" y="0" type="line"/>
      <point x="510" y="0" type="line"/>
      <point x="510" y="730" type="line"/>
      <point x="90" y="730" type="line"/>
    </contour>
    <contour>
      <point x="160" y="50" type="line"/>
      <point x="460" y="621" type="line"/>
      <point x="460" y="50" type="line"/>
    </contour>
    <contour>
      <point x="140" y="109" type="line"/>
      <point x="140" y="680" type="line"/>
      <point x="440" y="680" type="line"/>
    </contour>
  </outline>
</glyph>
<glyph name="asciitilde_at.liga" format="2">
  <advance width="600"/>
  <outline>
    <contour>
      <point x="-116" y="225" type="curve" smooth="yes"/>
      <point x="8" y="225"/>
      <point x="115" y="321"/>
      <point x="136" y="457" type="curve"/>
      <point x="58" y="457" type="line"/>
      <point x="47" y="387"/>
      <point x="-20" y="340"/>
      <point x="-93" y="340" type="curve" smooth="yes"/>
      <point x="-220" y="340"/>
      <point x="-204" y="480"/>
      <point x="-353" y="480" type="curve" smooth="yes"/>
      <point x="-453" y="480"/>
      <point x="-539" y="411"/>
      <point x="-553" y="320" type="curve" smooth="yes"/>
      <point x="-564" y="255" type="line"/>
      <point x="-444" y="255" type="line"/>
      <point x="-435" y="310" type="line" smooth="yes"/>
      <point x="-430" y="341"/>
      <point x="-404" y="365"/>
      <point x="-371" y="365" type="curve" smooth="yes"/>
      <point x="-288" y="365"/>
      <point x="-286" y="225"/>
    </contour>
    <component base="at"/>
  </outline>
</glyph>
<glyph name="bar_hyphen_greater.liga" format="2">
  <advance width="600"/>
  <outline>
    <contour>
      <point x="-1118" y="35" type="line"/>
      <point x="-968" y="35" type="line"/>
      <point x="-933" y="260" type="line"/>
      <point x="293" y="260" type="line"/>
      <point x="90" y="35" type="line"/>
      <point x="271" y="35" type="line"/>
      <point x="538" y="330" type="line"/>
      <point x="365" y="625" type="line"/>
      <point x="193" y="625" type="line"/>
      <point x="323" y="400" type="line"/>
      <point x="-911" y="400" type="line"/>
      <point x="-875" y="625" type="line"/>
      <point x="-1025" y="625" type="line"/>
    </contour>
  </outline>
</glyph>
<glyph name="braceleft_exclam_hyphen_hyphen.liga" format="2">
  <advance width="600"/>
  <outline>
    <contour>
      <point x="-713" y="260" type="line"/>
      <point x="517" y="260" type="line"/>
      <point x="539" y="400" type="line"/>
      <point x="-691" y="400" type="line"/>
    </contour>
    <contour>
      <point x="-1473" y="260" type="line"/>
      <point x="-1093" y="260" type="line"/>
      <point x="-1071" y="400" type="line"/>
      <point x="-1451" y="400" type="line"/>
    </contour>
    <component base="exclam" xOffset="-1198"/>
    <component base="braceleft" xOffset="-1740" yOffset="-30"/>
  </outline>
</glyph>
<glyph name="bracketright_numbersign.liga" format="2">
  <advance width="600"/>
  <outline>
    <contour>
      <point x="29" y="0" type="line"/>
      <point x="129" y="0" type="line"/>
      <point x="187" y="175" type="line"/>
      <point x="317" y="175" type="line"/>
      <point x="259" y="0" type="line"/>
      <point x="359" y="0" type="line"/>
      <point x="417" y="175" type="line"/>
      <point x="514" y="175" type="line"/>
      <point x="530" y="275" type="line"/>
      <point x="450" y="275" type="line"/>
      <point x="507" y="455" type="line"/>
      <point x="593" y="455" type="line"/>
      <point x="609" y="555" type="line"/>
      <point x="540" y="555" type="line"/>
      <point x="599" y="730" type="line"/>
      <point x="499" y="730" type="line"/>
      <point x="440" y="555" type="line"/>
      <point x="310" y="555" type="line"/>
      <point x="369" y="730" type="line"/>
      <point x="269" y="730" type="line"/>
      <point x="210" y="555" type="line"/>
      <point x="-221" y="555" type="line"/>
      <point x="-237" y="455" type="line"/>
      <point x="177" y="455" type="line"/>
      <point x="120" y="275" type="line"/>
      <point x="-265" y="275" type="line"/>
      <point x="-281" y="175" type="line"/>
      <point x="87" y="175" type="line"/>
    </contour>
    <contour>
      <point x="220" y="275" type="line"/>
      <point x="277" y="455" type="line"/>
      <point x="407" y="455" type="line"/>
      <point x="350" y="275" type="line"/>
    </contour>
    <component base="bracketright" xOffset="-600"/>
  </outline>
</glyph>
<glyph name="brevecomb-cy" format="2">
  <anchor x="-256" y="550" name="_top"/>
  <outline>
    <contour>
      <point x="-242" y="635" type="curve" smooth="yes"/>
      <point x="-131" y="635"/>
      <point x="-48" y="695"/>
      <point x="-34" y="785" type="curve"/>
      <point x="-151" y="785" type="line"/>
      <point x="-157" y="747"/>
      <point x="-189" y="722"/>
      <point x="-231" y="722" type="curve" smooth="yes"/>
      <point x="-272" y="722"/>
      <point x="-297" y="747"/>
      <point x="-291" y="785" type="curve"/>
      <point x="-404" y="785" type="line"/>
      <point x="-418" y="695"/>
      <point x="-352" y="635"/>
    </contour>
  </outline>
</glyph>
<glyph name="brevecomb.case" format="2">
  <anchor x="-228" y="730" name="_top"/>
  <anchor x="-193" y="950" name="top"/>
  <outline>
    <contour>
      <point x="-217" y="800" type="curve" smooth="yes"/>
      <point x="-106" y="800"/>
      <point x="-23" y="860"/>
      <point x="-9" y="950" type="curve"/>
      <point x="-126" y="950" type="line"/>
      <point x="-132" y="912"/>
      <point x="-164" y="887"/>
      <point x="-206" y="887" type="curve" smooth="yes"/>
      <point x="-247" y="887"/>
      <point x="-271" y="912"/>
      <point x="-265" y="950" type="curve"/>
      <point x="-378" y="950" type="line"/>
      <point x="-392" y="860"/>
      <point x="-327" y="800"/>
    </contour>
  </outline>
</glyph>
<glyph name="brevecomb_acutecomb" format="2">
  <anchor x="-256" y="550" name="_top"/>
  <anchor x="-197" y="925" name="top"/>
  <outline>
    <contour>
      <point x="-243" y="635" type="curve" smooth="yes"/>
      <point x="-135" y="635"/>
      <point x="-50" y="691"/>
      <point x="-36" y="775" type="curve"/>
      <point x="-148" y="775" type="line"/>
      <point x="-153" y="743"/>
      <point x="-183" y="725"/>
      <point x="-232" y="725" type="curve" smooth="yes"/>
      <point x="-279" y="725"/>
      <point x="-303" y="743"/>
      <point x="-298" y="775" type="curve"/>
      <point x="-406" y="775" type="line"/>
      <point x="-420" y="691"/>
      <point x="-351" y="635"/>
    </contour>
    <contour>
      <point x="-286" y="785" type="line"/>
      <point x="-164" y="785" type="line"/>
      <point x="-16" y="925" type="line"/>
      <point x="-148" y="925" type="line"/>
    </contour>
  </outline>
</glyph>
<glyph name="brevecomb_hookabovecomb" format="2">
  <anchor x="-256" y="550" name="_top"/>
  <anchor x="-190" y="970" name="top"/>
  <outline>
    <contour>
      <point x="-243" y="635" type="curve" smooth="yes"/>
      <point x="-135" y="635"/>
      <point x="-50" y="691"/>
      <point x="-36" y="775" type="curve"/>
      <point x="-148" y="775" type="line"/>
      <point x="-153" y="743"/>
      <point x="-183" y="725"/>
      <point x="-232" y="725" type="curve" smooth="yes"/>
      <point x="-279" y="725"/>
      <point x="-303" y="743"/>
      <point x="-298" y="775" type="curve"/>
      <point x="-406" y="775" type="line"/>
      <point x="-420" y="691"/>
      <point x="-351" y="635"/>
    </contour>
    <contour>
      <point x="-284" y="780" type="line"/>
      <point x="-168" y="780" type="line"/>
      <point x="-127" y="822" type="line" smooth="yes"/>
      <point x="-110" y="840"/>
      <point x="-97" y="862"/>
      <point x="-94" y="884" type="curve" smooth="yes"/>
      <point x="-86" y="935"/>
      <point x="-123" y="970"/>
      <point x="-186" y="970" type="curve" smooth="yes"/>
      <point x="-290" y="970" type="line"/>
      <point x="-304" y="885" type="line"/>
      <point x="-230" y="885" type="line" smooth="yes"/>
      <point x="-212" y="885"/>
      <point x="-205" y="879"/>
      <point x="-207" y="867" type="curve" smooth="yes"/>
      <point x="-208" y="859"/>
      <point x="-213" y="851"/>
      <point x="-226" y="838" type="curve" smooth="yes"/>
    </contour>
  </outline>
</glyph>
<glyph name="brevecomb_tildecomb.case" format="2">
  <anchor x="-228" y="730" name="_top"/>
  <anchor x="-182" y="1020" name="top"/>
  <outline>
    <contour>
      <point x="-263" y="780" type="curve" smooth="yes"/>
      <point x="-175" y="780" type="line" smooth="yes"/>
      <point x="-92" y="780"/>
      <point x="-34" y="820"/>
      <point x="-23" y="890" type="curve"/>
      <point x="-118" y="890" type="line"/>
      <point x="-121" y="872"/>
      <point x="-137" y="860"/>
      <point x="-158" y="860" type="curve" smooth="yes"/>
      <point x="-257" y="860" type="line" smooth="yes"/>
      <point x="-279" y="860"/>
      <point x="-291" y="872"/>
      <point x="-288" y="890" type="curve"/>
      <point x="-383" y="890" type="line"/>
      <point x="-394" y="820"/>
      <point x="-347" y="780"/>
    </contour>
    <contour>
      <point x="-120" y="910" type="curve" smooth="yes"/>
      <point x="-59" y="910"/>
      <point x="-16" y="949"/>
      <point x="-4" y="1010" type="curve" smooth="yes"/>
      <point x="-3" y="1015" type="line"/>
      <point x="-88" y="1015" type="line"/>
      <point x="-89" y="1010" type="line" smooth="yes"/>
      <point x="-92" y="995"/>
      <point x="-103" y="985"/>
      <point x="-118" y="985" type="curve" smooth="yes"/>
      <point x="-163" y="985"/>
      <point x="-192" y="1020"/>
      <point x="-262" y="1020" type="curve" smooth="yes"/>
      <point x="-323" y="1020"/>
      <point x="-366" y="980"/>
      <point x="-378" y="920" type="curve" smooth="yes"/>
      <point x="-379" y="915" type="line"/>
      <point x="-294" y="915" type="line"/>
      <point x="-293" y="920" type="line" smooth="yes"/>
      <point x="-290" y="935"/>
      <point x="-279" y="945"/>
      <point x="-264" y="945" type="curve" smooth="yes"/>
      <point x="-219" y="945"/>
      <point x="-190" y="910"/>
    </contour>
  </outline>
</glyph>
<glyph name="brevecomb_tildecomb" format="2">
  <anchor x="-256" y="550" name="_top"/>
  <anchor x="-192" y="955" name="top"/>
  <outline>
    <contour>
      <point x="-243" y="635" type="curve" smooth="yes"/>
      <point x="-135" y="635"/>
      <point x="-50" y="691"/>
      <point x="-36" y="775" type="curve"/>
      <point x="-148" y="775" type="line"/>
      <point x="-153" y="743"/>
      <point x="-183" y="725"/>
      <point x="-232" y="725" type="curve" smooth="yes"/>
      <point x="-279" y="725"/>
      <point x="-303" y="743"/>
      <point x="-298" y="775" type="curve"/>
      <point x="-406" y="775" type="line"/>
      <point x="-420" y="691"/>
      <point x="-351" y="635"/>
    </contour>
    <contour>
      <point x="-147" y="800" type="curve" smooth="yes"/>
      <point x="-81" y="800"/>
      <point x="-29" y="846"/>
      <point x="-19" y="915" type="curve" smooth="yes"/>
      <point x="-14" y="950" type="line"/>
      <point x="-99" y="950" type="line"/>
      <point x="-104" y="913" type="line" smooth="yes"/>
      <point x="-106" y="896"/>
      <point x="-121" y="885"/>
      <point x="-139" y="885" type="curve" smooth="yes"/>
      <point x="-179" y="885"/>
      <point x="-178" y="955"/>
      <point x="-263" y="955" type="curve" smooth="yes"/>
      <point x="-329" y="955"/>
      <point x="-379" y="909"/>
      <point x="-391" y="840" type="curve" smooth="yes"/>
      <point x="-397" y="805" type="line"/>
      <point x="-312" y="805" type="line"/>
      <point x="-306" y="837" type="line" smooth="yes"/>
      <point x="-302" y="857"/>
      <point x="-289" y="870"/>
      <point x="-271" y="870" type="curve" smooth="yes"/>
      <point x="-231" y="870"/>
      <point x="-232" y="800"/>
    </contour>
  </outline>
</glyph>
<glyph name="caroncomb.case" format="2">
  <anchor x="-227" y="730" name="_top"/>
  <anchor x="-193" y="950" name="top"/>
  <outline>
    <contour>
      <point x="-285" y="810" type="line"/>
      <point x="-145" y="810" type="line"/>
      <point x="12" y="950" type="line"/>
      <point x="-127" y="950" type="line"/>
      <point x="-205" y="880" type="line"/>
      <point x="-266" y="950" type="line"/>
      <point x="-398" y="950" type="line"/>
    </contour>
  </outline>
</glyph>
<glyph name="cedillacomb.case" format="2">
  <anchor x="-344" y="0" name="_bottom"/>
  <anchor x="-360" y="-225" name="bottom"/>
  <outline>
    <contour>
      <point x="-485" y="-225" type="line"/>
      <point x="-375" y="-225" type="line" smooth="yes"/>
      <point x="-291" y="-225"/>
      <point x="-228" y="-182"/>
      <point x="-220" y="-133" type="curve" smooth="yes"/>
      <point x="-210" y="-72"/>
      <point x="-287" y="-43"/>
      <point x="-347" y="-39" type="curve"/>
      <point x="-319" y="16" type="line"/>
      <point x="-392" y="16" type="line"/>
      <point x="-441" y="-69" type="line"/>
      <point x="-368" y="-69"/>
      <point x="-328" y="-88"/>
      <point x="-333" y="-119" type="curve" smooth="yes"/>
      <point x="-335" y="-135"/>
      <point x="-361" y="-155"/>
      <point x="-394" y="-155" type="curve" smooth="yes"/>
      <point x="-474" y="-155" type="line"/>
    </contour>
  </outline>
</glyph>
<glyph name="circumflexcomb.case" format="2">
  <anchor x="-227" y="730" name="_top"/>
  <anchor x="-193" y="950" name="top"/>
  <outline>
    <contour>
      <point x="-420" y="810" type="line"/>
      <point x="-281" y="810" type="line"/>
      <point x="-203" y="880" type="line"/>
      <point x="-142" y="810" type="line"/>
      <point x="-10" y="810" type="line"/>
      <point x="-123" y="950" type="line"/>
      <point x="-263" y="950" type="line"/>
    </contour>
  </outline>
</glyph>
<glyph name="circumflexcomb_hookabovecomb.case" format="2">
  <anchor x="-228" y="730" name="_top"/>
  <anchor x="-139" y="1020" name="top"/>
  <outline>
    <contour>
      <point x="-70" y="870" type="line"/>
      <point x="42" y="870" type="line"/>
      <point x="63" y="886" type="line" smooth="yes"/>
      <point x="79" y="898"/>
      <point x="93" y="921"/>
      <point x="96" y="938" type="curve" smooth="yes"/>
      <point x="104" y="991"/>
      <point x="67" y="1020"/>
      <point x="3" y="1020" type="curve" smooth="yes"/>
      <point x="-92" y="1020" type="line"/>
      <point x="-104" y="944" type="line"/>
      <point x="-36" y="944" type="line" smooth="yes"/>
      <point x="-20" y="944"/>
      <point x="-12" y="938"/>
      <point x="-14" y="927" type="curve" smooth="yes"/>
      <point x="-15" y="920"/>
      <point x="-19" y="914"/>
      <point x="-31" y="904" type="curve" smooth="yes"/>
    </contour>
    <contour>
      <point x="-425" y="780" type="line"/>
      <point x="-284" y="780" type="line"/>
      <point x="-204" y="850" type="line"/>
      <point x="-146" y="780" type="line"/>
      <point x="-15" y="780" type="line"/>
      <point x="-128" y="920" type="line"/>
      <point x="-268" y="920" type="line"/>
    </contour>
  </outline>
</glyph>
<glyph name="circumflexcomb_hookabovecomb" format="2">
  <anchor x="-256" y="550" name="_top"/>
  <anchor x="-145" y="944" name="top"/>
  <outline>
    <contour>
      <point x="-91" y="755" type="line"/>
      <point x="24" y="755" type="line"/>
      <point x="65" y="797" type="line" smooth="yes"/>
      <point x="82" y="814"/>
      <point x="93" y="836"/>
      <point x="97" y="858" type="curve" smooth="yes"/>
      <point x="105" y="910"/>
      <point x="69" y="944"/>
      <point x="6" y="944" type="curve" smooth="yes"/>
      <point x="-99" y="944" type="line"/>
      <point x="-113" y="859" type="line"/>
      <point x="-38" y="859" type="line" smooth="yes"/>
      <point x="-19" y="859"/>
      <point x="-12" y="855"/>
      <point x="-14" y="842" type="curve" smooth="yes"/>
      <point x="-15" y="834"/>
      <point x="-20" y="826"/>
      <point x="-33" y="813" type="curve" smooth="yes"/>
    </contour>
    <contour>
      <point x="-447" y="645" type="line"/>
      <point x="-309" y="645" type="line"/>
      <point x="-231" y="715" type="line"/>
      <point x="-170" y="645" type="line"/>
      <point x="-37" y="645" type="line"/>
      <point x="-150" y="785" type="line"/>
      <point x="-290" y="785" type="line"/>
    </contour>
  </outline>
</glyph>
<glyph name="circumflexcomb_tildecomb.case" format="2">
  <anchor x="-228" y="730" name="_top"/>
  <anchor x="-182" y="1020" name="top"/>
  <outline>
    <contour>
      <point x="-120" y="910" type="curve" smooth="yes"/>
      <point x="-59" y="910"/>
      <point x="-16" y="949"/>
      <point x="-4" y="1010" type="curve" smooth="yes"/>
      <point x="-3" y="1015" type="line"/>
      <point x="-88" y="1015" type="line"/>
      <point x="-89" y="1010" type="line" smooth="yes"/>
      <point x="-92" y="995"/>
      <point x="-103" y="985"/>
      <point x="-118" y="985" type="curve" smooth="yes"/>
      <point x="-163" y="985"/>
      <point x="-192" y="1020"/>
      <point x="-262" y="1020" type="curve" smooth="yes"/>
      <point x="-323" y="1020"/>
      <point x="-366" y="980"/>
      <point x="-378" y="920" type="curve" smooth="yes"/>
      <point x="-379" y="915" type="line"/>
      <point x="-294" y="915" type="line"/>
      <point x="-293" y="920" type="line" smooth="yes"/>
      <point x="-290" y="935"/>
      <point x="-279" y="945"/>
      <point x="-264" y="945" type="curve" smooth="yes"/>
      <point x="-219" y="945"/>
      <point x="-190" y="910"/>
    </contour>
    <contour>
      <point x="-425" y="780" type="line"/>
      <point x="-289" y="780" type="line"/>
      <point x="-209" y="855" type="line"/>
      <point x="-151" y="780" type="line"/>
      <point x="-15" y="780" type="line"/>
      <point x="-94" y="884" type="line"/>
      <point x="-314" y="884" type="line"/>
    </contour>
  </outline>
</glyph>
<glyph name="circumflexcomb_tildecomb" format="2">
  <anchor x="-256" y="550" name="_top"/>
  <anchor x="-191" y="970" name="top"/>
  <outline>
    <contour>
      <point x="-143" y="826" type="curve" smooth="yes"/>
      <point x="-77" y="826"/>
      <point x="-27" y="872"/>
      <point x="-15" y="941" type="curve" smooth="yes"/>
      <point x="-11" y="964" type="line"/>
      <point x="-96" y="964" type="line"/>
      <point x="-100" y="939" type="line" smooth="yes"/>
      <point x="-103" y="922"/>
      <point x="-117" y="911"/>
      <point x="-135" y="911" type="curve" smooth="yes"/>
      <point x="-175" y="911"/>
      <point x="-175" y="970"/>
      <point x="-260" y="970" type="curve" smooth="yes"/>
      <point x="-326" y="970"/>
      <point x="-378" y="924"/>
      <point x="-389" y="855" type="curve" smooth="yes"/>
      <point x="-393" y="830" type="line"/>
      <point x="-308" y="830" type="line"/>
      <point x="-304" y="852" type="line" smooth="yes"/>
      <point x="-300" y="872"/>
      <point x="-287" y="885"/>
      <point x="-269" y="885" type="curve" smooth="yes"/>
      <point x="-229" y="885"/>
      <point x="-228" y="826"/>
    </contour>
    <contour>
      <point x="-447" y="645" type="line"/>
      <point x="-309" y="645" type="line"/>
      <point x="-231" y="715" type="line"/>
      <point x="-170" y="645" type="line"/>
      <point x="-37" y="645" type="line"/>
      <point x="-150" y="785" type="line"/>
      <point x="-290" y="785" type="line"/>
    </contour>
  </outline>
</glyph>
<glyph name="commaaccentcomb.case" format="2">
  <anchor x="-344" y="0" name="_bottom"/>
  <anchor x="-384" y="-240" name="bottom"/>
  <outline>
    <contour>
      <point x="-510" y="-240" type="line"/>
      <point x="-374" y="-240" type="line"/>
      <point x="-236" y="-95" type="line"/>
      <point x="-392" y="-95" type="line"/>
    </contour>
  </outline>
</glyph>
<glyph name="dollar_greater.liga" format="2">
  <advance width="600"/>
  <outline>
    <contour>
      <point x="-366" y="-140" type="line"/>
      <point x="-301" y="-140" type="line"/>
      <point x="-280" y="-9" type="line"/>
      <point x="-143" y="2"/>
      <point x="-42" y="86"/>
      <point x="-23" y="206" type="curve" smooth="yes"/>
      <point x="-6" y="320"/>
      <point x="-62" y="404"/>
      <point x="-184" y="427" type="curve" smooth="yes"/>
      <point x="-210" y="432" type="line"/>
      <point x="-183" y="608" type="line"/>
      <point x="-153" y="605"/>
      <point x="-127" y="602"/>
      <point x="-101" y="589" type="curve" smooth="yes"/>
      <point x="358" y="357" type="line" smooth="yes"/>
      <point x="383" y="344"/>
      <point x="408" y="337"/>
      <point x="421" y="334" type="curve"/>
      <point x="407" y="331"/>
      <point x="379" y="324"/>
      <point x="350" y="312" type="curve" smooth="yes"/>
      <point x="55" y="190" type="line"/>
      <point x="34" y="49" type="line"/>
      <point x="527" y="258" type="line"/>
      <point x="550" y="401" type="line"/>
      <point x="-32" y="694" type="line" smooth="yes"/>
      <point x="-76" y="716"/>
      <point x="-123" y="732"/>
      <point x="-162" y="737" type="curve"/>
      <point x="-141" y="870" type="line"/>
      <point x="-206" y="870" type="line"/>
      <point x="-227" y="739" type="line"/>
      <point x="-358" y="727"/>
      <point x="-450" y="647"/>
      <point x="-468" y="529" type="curve" smooth="yes"/>
      <point x="-485" y="418"/>
      <point x="-428" y="338"/>
      <point x="-308" y="305" type="curve" smooth="yes"/>
      <point x="-297" y="302" type="line"/>
      <point x="-324" y="124" type="line"/>
      <point x="-366" y="134"/>
      <point x="-387" y="161"/>
      <point x="-380" y="200" type="curve"/>
      <point x="-530" y="200" type="line"/>
      <point x="-549" y="82"/>
      <point x="-478" y="3"/>
      <point x="-345" y="-9" type="curve"/>
    </contour>
    <contour>
      <point x="-260" y="122" type="curve"/>
      <point x="-223" y="354" type="line"/>
      <point x="-287" y="292" type="line"/>
      <point x="-210" y="298"/>
      <point x="-164" y="261"/>
      <point x="-174" y="199" type="curve" smooth="yes"/>
      <point x="-181" y="157"/>
      <point x="-213" y="129"/>
    </contour>
    <contour>
      <point x="-283" y="387" type="line"/>
      <point x="-222" y="439" type="line"/>
      <point x="-290" y="436"/>
      <point x="-327" y="474"/>
      <point x="-317" y="535" type="curve" smooth="yes"/>
      <point x="-311" y="573"/>
      <point x="-286" y="598"/>
      <point x="-248" y="607" type="curve"/>
    </contour>
  </outline>
</glyph>
<glyph name="dotaccentcomb.case" format="2">
  <anchor x="-227" y="730" name="_top"/>
  <anchor x="-192" y="958" name="top"/>
  <outline>
    <contour>
      <point x="-216" y="802" type="curve" smooth="yes"/>
      <point x="-161" y="802"/>
      <point x="-121" y="832"/>
      <point x="-114" y="880" type="curve" smooth="yes"/>
      <point x="-106" y="928"/>
      <point x="-136" y="958"/>
      <point x="-191" y="958" type="curve" smooth="yes"/>
      <point x="-246" y="958"/>
      <point x="-286" y="928"/>
      <point x="-294" y="880" type="curve" smooth="yes"/>
      <point x="-301" y="832"/>
      <point x="-271" y="802"/>
    </contour>
  </outline>
</glyph>
<glyph name="dotbelowcomb.case" format="2">
  <anchor x="-344" y="0" name="_bottom"/>
  <anchor x="-381" y="-233" name="bottom"/>
  <outline>
    <contour>
      <point x="-381" y="-233" type="curve" smooth="yes"/>
      <point x="-326" y="-233"/>
      <point x="-286" y="-203"/>
      <point x="-279" y="-155" type="curve" smooth="yes"/>
      <point x="-271" y="-107"/>
      <point x="-301" y="-77"/>
      <point x="-356" y="-77" type="curve" smooth="yes"/>
      <point x="-411" y="-77"/>
      <point x="-451" y="-107"/>
      <point x="-459" y="-155" type="curve" smooth="yes"/>
      <point x="-466" y="-203"/>
      <point x="-436" y="-233"/>
    </contour>
  </outline>
</glyph>
<glyph name="equal_colon.liga" format="2">
  <advance width="600"/>
  <outline>
    <contour>
      <point x="100" y="275" type="line"/>
      <point x="-450" y="275" type="line"/>
      <point x="-472" y="135" type="line"/>
      <point x="78" y="135" type="line"/>
    </contour>
    <contour>
      <point x="418" y="575" type="curve" smooth="yes"/>
      <point x="358" y="575"/>
      <point x="312" y="537"/>
      <point x="302" y="480" type="curve" smooth="yes"/>
      <point x="293" y="419"/>
      <point x="326" y="379"/>
      <point x="386" y="379" type="curve" smooth="yes"/>
      <point x="446" y="379"/>
      <point x="493" y="419"/>
      <point x="502" y="480" type="curve" smooth="yes"/>
      <point x="512" y="537"/>
      <point x="478" y="575"/>
    </contour>
    <contour>
      <point x="371" y="281" type="curve" smooth="yes"/>
      <point x="311" y="281"/>
      <point x="265" y="243"/>
      <point x="256" y="186" type="curve" smooth="yes"/>
      <point x="246" y="125"/>
      <point x="280" y="85"/>
      <point x="340" y="85" type="curve" smooth="yes"/>
      <point x="400" y="85"/>
      <point x="446" y="125"/>
      <point x="456" y="186" type="curve" smooth="yes"/>
      <point x="465" y="243"/>
      <point x="431" y="281"/>
    </contour>
    <contour>
      <point x="140" y="525" type="line"/>
      <point x="-410" y="525" type="line"/>
      <point x="-433" y="385" type="line"/>
      <point x="117" y="385" type="line"/>
    </contour>
  </outline>
</glyph>
<glyph name="equal_greater_greater.liga" format="2">
  <advance width="600"/>
  <outline>
    <contour>
      <point x="-230" y="35" type="line"/>
      <point x="-49" y="35" type="line"/>
      <point x="218" y="330" type="line"/>
      <point x="45" y="625" type="line"/>
      <point x="-127" y="625" type="line"/>
      <point x="-69" y="525" type="line"/>
      <point x="-1081" y="525" type="line"/>
      <point x="-1103" y="385" type="line"/>
      <point x="13" y="385" type="line"/>
      <point x="46" y="334" type="line"/>
      <point x="-10" y="275" type="line"/>
      <point x="-1120" y="275" type="line"/>
      <point x="-1143" y="135" type="line"/>
      <point x="-138" y="135" type="line"/>
    </contour>
    <contour>
      <point x="90" y="35" type="line"/>
      <point x="271" y="35" type="line"/>
      <point x="538" y="330" type="line"/>
      <point x="365" y="625" type="line"/>
      <point x="193" y="625" type="line"/>
      <point x="366" y="334" type="line"/>
    </contour>
  </outline>
</glyph>
<glyph name="four.half" format="2">
  <advance width="400"/>
  <outline>
    <contour>
      <point x="208" y="0" type="line"/>
      <point x="292" y="0" type="line"/>
      <point x="328" y="225" type="line"/>
      <point x="244" y="225" type="line"/>
      <point x="230" y="136" type="line"/>
      <point x="119" y="136" type="line"/>
      <point x="120" y="146" type="line"/>
      <point x="320" y="335" type="line"/>
      <point x="215" y="335" type="line"/>
      <point x="29" y="160" type="line"/>
      <point x="12" y="56" type="line"/>
      <point x="217" y="56" type="line"/>
    </contour>
  </outline>
</glyph>
<glyph name="gravecomb.case" format="2">
  <anchor x="-214" y="730" name="_top"/>
  <anchor x="-225" y="950" name="top"/>
  <outline>
    <contour>
      <point x="-262" y="810" type="line"/>
      <point x="-115" y="810" type="line"/>
      <point x="-198" y="950" type="line"/>
      <point x="-357" y="950" type="line"/>
    </contour>
  </outline>
</glyph>
<glyph name="greater_equal.liga" format="2">
  <advance width="600"/>
  <outline>
    <contour>
      <point x="-325" y="150" type="line"/>
      <point x="317" y="351" type="line"/>
      <point x="340" y="498" type="line"/>
      <point x="-238" y="700" type="line"/>
      <point x="-260" y="568" type="line"/>
      <point x="147" y="444" type="line" smooth="yes"/>
      <point x="173" y="436"/>
      <point x="214" y="434"/>
      <point x="236" y="435" type="curve"/>
      <point x="235" y="425" type="line"/>
      <point x="212" y="425"/>
      <point x="171" y="421"/>
      <point x="142" y="413" type="curve" smooth="yes"/>
      <point x="-304" y="291" type="line"/>
    </contour>
    <contour>
      <point x="-362" y="-80" type="line"/>
      <point x="280" y="121" type="line"/>
      <point x="300" y="248" type="line"/>
      <point x="-342" y="47" type="line"/>
    </contour>
  </outline>
</glyph>
<glyph name="greater_greater_hyphen.liga" format="2">
  <advance width="600"/>
  <outline>
    <contour>
      <point x="-850" y="35" type="line"/>
      <point x="-669" y="35" type="line"/>
      <point x="-465" y="260" type="line"/>
      <point x="517" y="260" type="line"/>
      <point x="539" y="400" type="line"/>
      <point x="-443" y="400" type="line"/>
      <point x="-575" y="625" type="line"/>
      <point x="-747" y="625" type="line"/>
      <point x="-582" y="334" type="line"/>
    </contour>
    <contour>
      <point x="-1150" y="35" type="line"/>
      <point x="-969" y="35" type="line"/>
      <point x="-702" y="330" type="line"/>
      <point x="-875" y="625" type="line"/>
      <point x="-1047" y="625" type="line"/>
      <point x="-882" y="334" type="line"/>
    </contour>
  </outline>
</glyph>
<glyph name="hyphen_greater.liga" format="2">
  <advance width="600"/>
  <outline>
    <contour>
      <point x="193" y="625" type="line"/>
      <point x="323" y="400" type="line"/>
      <point x="-501" y="400" type="line"/>
      <point x="-523" y="260" type="line"/>
      <point x="293" y="260" type="line"/>
      <point x="90" y="35" type="line"/>
      <point x="271" y="35" type="line"/>
      <point x="538" y="330" type="line"/>
      <point x="365" y="625" type="line"/>
    </contour>
  </outline>
</glyph>
<glyph name="hyphen_hyphen_hyphen.liga" format="2">
  <advance width="600"/>
  <outline>
    <contour>
      <point x="12" y="260" type="line"/>
      <point x="457" y="260" type="line"/>
      <point x="479" y="400" type="line"/>
      <point x="34" y="400" type="line"/>
    </contour>
    <contour>
      <point x="-1063" y="260" type="line"/>
      <point x="-618" y="260" type="line"/>
      <point x="-596" y="400" type="line"/>
      <point x="-1041" y="400" type="line"/>
    </contour>
    <contour>
      <point x="-523" y="260" type="line"/>
      <point x="-83" y="260" type="line"/>
      <point x="-61" y="400" type="line"/>
      <point x="-501" y="400" type="line"/>
    </contour>
  </outline>
</glyph>
<glyph name="less_equal_equal_greater.liga" format="2">
  <advance width="600"/>
  <outline>
    <contour>
      <point x="-1548" y="35" type="line"/>
      <point x="-1377" y="35" type="line"/>
      <point x="-1436" y="135" type="line"/>
      <point x="181" y="135" type="line"/>
      <point x="89" y="35" type="line"/>
      <point x="271" y="35" type="line"/>
      <point x="538" y="330" type="line"/>
      <point x="365" y="625" type="line"/>
      <point x="193" y="625" type="line"/>
      <point x="251" y="525" type="line"/>
      <point x="-1364" y="525" type="line"/>
      <point x="-1273" y="625" type="line"/>
      <point x="-1454" y="625" type="line"/>
      <point x="-1722" y="330" type="line"/>
    </contour>
    <contour>
      <point x="-1516" y="275" type="line"/>
      <point x="-1543" y="326" type="line"/>
      <point x="-1490" y="385" type="line"/>
      <point x="332" y="385" type="line"/>
      <point x="362" y="333" type="line"/>
      <point x="308" y="275" type="line"/>
    </contour>
  </outline>
</glyph>
<glyph name="less_equal_greater.liga" format="2">
  <advance width="600"/>
  <outline>
    <contour>
      <point x="-948" y="35" type="line"/>
      <point x="-777" y="35" type="line"/>
      <point x="-835" y="135" type="line"/>
      <point x="181" y="135" type="line"/>
      <point x="90" y="35" type="line"/>
      <point x="271" y="35" type="line"/>
      <point x="538" y="330" type="line"/>
      <point x="365" y="625" type="line"/>
      <point x="193" y="625" type="line"/>
      <point x="251" y="525" type="line"/>
      <point x="-764" y="525" type="line"/>
      <point x="-673" y="625" type="line"/>
      <point x="-854" y="625" type="line"/>
      <point x="-1122" y="330" type="line"/>
    </contour>
    <contour>
      <point x="-915" y="275" type="line"/>
      <point x="-943" y="326" type="line"/>
      <point x="-890" y="385" type="line"/>
      <point x="333" y="385" type="line"/>
      <point x="363" y="333" type="line"/>
      <point x="308" y="275" type="line"/>
    </contour>
  </outline>
</glyph>
<glyph name="less_equal_less.liga" format="2">
  <advance width="600"/>
  <outline>
    <contour>
      <point x="-948" y="35" type="line"/>
      <point x="-777" y="35" type="line"/>
      <point x="-836" y="135" type="line"/>
      <point x="235" y="135" type="line"/>
      <point x="295" y="35" type="line"/>
      <point x="466" y="35" type="line"/>
      <point x="299" y="326" type="line"/>
      <point x="570" y="625" type="line"/>
      <point x="389" y="625" type="line"/>
      <point x="298" y="525" type="line"/>
      <point x="-764" y="525" type="line"/>
      <point x="-673" y="625" type="line"/>
      <point x="-854" y="625" type="line"/>
      <point x="-1122" y="330" type="line"/>
    </contour>
    <contour>
      <point x="-917" y="275" type="line"/>
      <point x="-945" y="326" type="line"/>
      <point x="-891" y="385" type="line"/>
      <point x="171" y="385" type="line"/>
      <point x="121" y="330" type="line"/>
      <point x="154" y="275" type="line"/>
    </contour>
  </outline>
</glyph>
<glyph name="less_hyphen.liga" format="2">
  <advance width="600"/>
  <outline>
    <contour>
      <point x="-348" y="35" type="line"/>
      <point x="-176" y="35" type="line"/>
      <point x="-307" y="260" type="line"/>
      <point x="497" y="260" type="line"/>
      <point x="519" y="400" type="line"/>
      <point x="-277" y="400" type="line"/>
      <point x="-73" y="625" type="line"/>
      <point x="-254" y="625" type="line"/>
      <point x="-522" y="330" type="line"/>
    </contour>
  </outline>
</glyph>
<glyph name="less_hyphen_less.liga" format="2">
  <advance width="600"/>
  <outline>
    <contour>
      <point x="-948" y="35" type="line"/>
      <point x="-776" y="35" type="line"/>
      <point x="-907" y="260" type="line"/>
      <point x="162" y="260" type="line"/>
      <point x="295" y="35" type="line"/>
      <point x="467" y="35" type="line"/>
      <point x="304" y="324" type="line"/>
      <point x="570" y="625" type="line"/>
      <point x="389" y="625" type="line"/>
      <point x="184" y="400" type="line"/>
      <point x="-877" y="400" type="line"/>
      <point x="-673" y="625" type="line"/>
      <point x="-854" y="625" type="line"/>
      <point x="-1122" y="330" type="line"/>
    </contour>
  </outline>
</glyph>
<glyph name="less_plus_greater.liga" format="2">
  <advance width="600"/>
  <outline>
    <contour>
      <point x="-402" y="45" type="line"/>
      <point x="-252" y="45" type="line"/>
      <point x="-218" y="260" type="line"/>
      <point x="-8" y="260" type="line"/>
      <point x="14" y="400" type="line"/>
      <point x="-196" y="400" type="line"/>
      <point x="-162" y="615" type="line"/>
      <point x="-312" y="615" type="line"/>
      <point x="-346" y="400" type="line"/>
      <point x="-556" y="400" type="line"/>
      <point x="-578" y="260" type="line"/>
      <point x="-368" y="260" type="line"/>
    </contour>
    <component base="less" xOffset="-1185"/>
    <component base="greater" xOffset="-15"/>
  </outline>
</glyph>
<glyph name="macroncomb.case" format="2">
  <anchor x="-228" y="730" name="_top"/>
  <anchor x="-197" y="930" name="top"/>
  <outline>
    <contour>
      <point x="-394" y="820" type="line"/>
      <point x="-34" y="820" type="line"/>
      <point x="-17" y="930" type="line"/>
      <point x="-377" y="930" type="line"/>
    </contour>
  </outline>
</glyph>
<glyph name="numbersign_braceleft.liga" format="2">
  <advance width="600"/>
  <outline>
    <contour>
      <point x="-572" y="0" type="line"/>
      <point x="-472" y="0" type="line"/>
      <point x="-414" y="175" type="line"/>
      <point x="-284" y="175" type="line"/>
      <point x="-342" y="0" type="line"/>
      <point x="-242" y="0" type="line"/>
      <point x="-184" y="175" type="line"/>
      <point x="348" y="175" type="line"/>
      <point x="364" y="275" type="line"/>
      <point x="-151" y="275" type="line"/>
      <point x="-94" y="455" type="line"/>
      <point x="392" y="455" type="line"/>
      <point x="408" y="555" type="line"/>
      <point x="-61" y="555" type="line"/>
      <point x="-2" y="730" type="line"/>
      <point x="-102" y="730" type="line"/>
      <point x="-161" y="555" type="line"/>
      <point x="-291" y="555" type="line"/>
      <point x="-232" y="730" type="line"/>
      <point x="-332" y="730" type="line"/>
      <point x="-391" y="555" type="line"/>
      <point x="-487" y="555" type="line"/>
      <point x="-503" y="455" type="line"/>
      <point x="-424" y="455" type="line"/>
      <point x="-481" y="275" type="line"/>
      <point x="-566" y="275" type="line"/>
      <point x="-582" y="175" type="line"/>
      <point x="-514" y="175" type="line"/>
    </contour>
    <contour>
      <point x="-381" y="275" type="line"/>
      <point x="-324" y="455" type="line"/>
      <point x="-194" y="455" type="line"/>
      <point x="-251" y="275" type="line"/>
    </contour>
    <contour>
      <point x="378" y="-111" type="curve" smooth="yes"/>
      <point x="463" y="-111" type="line"/>
      <point x="486" y="29" type="line"/>
      <point x="431" y="29" type="line" smooth="yes"/>
      <point x="395" y="29"/>
      <point x="372" y="53"/>
      <point x="380" y="89" type="curve" smooth="yes"/>
      <point x="415" y="244" type="line" smooth="yes"/>
      <point x="432" y="319"/>
      <point x="376" y="361"/>
      <point x="299" y="364" type="curve"/>
      <point x="299" y="369" type="line"/>
      <point x="377" y="372"/>
      <point x="446" y="409"/>
      <point x="453" y="484" type="curve" smooth="yes"/>
      <point x="466" y="630" type="line" smooth="yes"/>
      <point x="470" y="673"/>
      <point x="497" y="690"/>
      <point x="535" y="690" type="curve" smooth="yes"/>
      <point x="590" y="690" type="line"/>
      <point x="612" y="830" type="line"/>
      <point x="527" y="830" type="line" smooth="yes"/>
      <point x="417" y="830"/>
      <point x="328" y="760"/>
      <point x="319" y="650" type="curve" smooth="yes"/>
      <point x="306" y="504" type="line" smooth="yes"/>
      <point x="302" y="462"/>
      <point x="267" y="435"/>
      <point x="225" y="435" type="curve" smooth="yes"/>
      <point x="125" y="435" type="line"/>
      <point x="103" y="295" type="line"/>
      <point x="203" y="295" type="line" smooth="yes"/>
      <point x="245" y="295"/>
      <point x="271" y="266"/>
      <point x="261" y="224" type="curve" smooth="yes"/>
      <point x="228" y="74" type="line" smooth="yes"/>
      <point x="203" y="-38"/>
      <point x="269" y="-111"/>
    </contour>
  </outline>
</glyph>
<glyph name="numbersign_equal.liga" format="2">
  <advance width="600"/>
  <outline>
    <contour>
      <point x="103" y="420" type="line"/>
      <point x="543" y="420" type="line"/>
      <point x="565" y="560" type="line"/>
      <point x="125" y="560" type="line"/>
    </contour>
    <contour>
      <point x="63" y="170" type="line"/>
      <point x="503" y="170" type="line"/>
      <point x="525" y="310" type="line"/>
      <point x="85" y="310" type="line"/>
    </contour>
    <component base="numbersign" xOffset="-600"/>
  </outline>
</glyph>
<glyph name="numbersign_exclam.liga" format="2">
  <advance width="600"/>
  <outline>
    <contour>
      <point x="187" y="245" type="line"/>
      <point x="299" y="245" type="line"/>
      <point x="440" y="580" type="line"/>
      <point x="493" y="730" type="line"/>
      <point x="335" y="730" type="line"/>
      <point x="282" y="580" type="line"/>
    </contour>
    <contour>
      <point x="139" y="-5" type="curve" smooth="yes"/>
      <point x="168" y="-5" type="line" smooth="yes"/>
      <point x="214" y="-5"/>
      <point x="253" y="22"/>
      <point x="269" y="65" type="curve" smooth="yes"/>
      <point x="284" y="107"/>
      <point x="263" y="135"/>
      <point x="218" y="135" type="curve" smooth="yes"/>
      <point x="188" y="135" type="line" smooth="yes"/>
      <point x="143" y="135"/>
      <point x="104" y="107"/>
      <point x="89" y="65" type="curve" smooth="yes"/>
      <point x="74" y="23"/>
      <point x="94" y="-5"/>
    </contour>
    <component base="numbersign" xOffset="-600"/>
  </outline>
</glyph>
<glyph name="plus_greater.liga" format="2">
  <advance width="600"/>
  <outline>
    <contour>
      <point x="-377" y="45" type="line"/>
      <point x="-227" y="45" type="line"/>
      <point x="-193" y="260" type="line"/>
      <point x="17" y="260" type="line"/>
      <point x="39" y="400" type="line"/>
      <point x="-171" y="400" type="line"/>
      <point x="-137" y="615" type="line"/>
      <point x="-287" y="615" type="line"/>
      <point x="-321" y="400" type="line"/>
      <point x="-531" y="400" type="line"/>
      <point x="-553" y="260" type="line"/>
      <point x="-343" y="260" type="line"/>
    </contour>
    <component base="greater" xOffset="10"/>
  </outline>
</glyph>
<glyph name="slash_greater.liga" format="2">
  <advance width="600"/>
  <outline>
    <contour>
      <point x="-571" y="-110" type="line"/>
      <point x="-412" y="-110" type="line"/>
      <point x="-73" y="542" type="line"/>
      <point x="312" y="355" type="line" smooth="yes"/>
      <point x="339" y="342"/>
      <point x="377" y="335"/>
      <point x="399" y="333" type="curve"/>
      <point x="377" y="331"/>
      <point x="336" y="324"/>
      <point x="306" y="312" type="curve" smooth="yes"/>
      <point x="10" y="190" type="line"/>
      <point x="-11" y="49" type="line"/>
      <point x="482" y="258" type="line"/>
      <point x="505" y="401" type="line"/>
      <point x="-15" y="654" type="line"/>
      <point x="77" y="830" type="line"/>
      <point x="-82" y="830" type="line"/>
    </contour>
  </outline>
</glyph>
<glyph name="three.half" format="2">
  <advance width="400"/>
  <outline>
    <contour>
      <point x="143" y="-5" type="curve" smooth="yes"/>
      <point x="240" y="-5"/>
      <point x="317" y="49"/>
      <point x="317" y="124" type="curve" smooth="yes"/>
      <point x="317" y="180"/>
      <point x="267" y="217"/>
      <point x="188" y="217" type="curve"/>
      <point x="193" y="182" type="line"/>
      <point x="320" y="263" type="line"/>
      <point x="331" y="335" type="line"/>
      <point x="60" y="335" type="line"/>
      <point x="47" y="255" type="line"/>
      <point x="211" y="255" type="line"/>
      <point x="146" y="218" type="line"/>
      <point x="134" y="145" type="line"/>
      <point x="188" y="145" type="line" smooth="yes"/>
      <point x="214" y="145"/>
      <point x="231" y="132"/>
      <point x="231" y="115" type="curve" smooth="yes"/>
      <point x="231" y="90"/>
      <point x="197" y="73"/>
      <point x="156" y="73" type="curve" smooth="yes"/>
      <point x="112" y="73"/>
      <point x="86" y="92"/>
      <point x="87" y="121" type="curve" smooth="yes"/>
      <point x="87" y="123"/>
      <point x="87" y="125"/>
      <point x="88" y="127" type="curve"/>
      <point x="2" y="127" type="line"/>
      <point x="1" y="120"/>
      <point x="0" y="113"/>
      <point x="0" y="106" type="curve" smooth="yes"/>
      <point x="0" y="40"/>
      <point x="54" y="-5"/>
    </contour>
  </outline>
</glyph>
<glyph name="tildecomb.case" format="2">
  <anchor x="-228" y="730" name="_top"/>
  <anchor x="-192" y="960" name="top"/>
  <outline>
    <contour>
      <point x="-147" y="800" type="curve" smooth="yes"/>
      <point x="-81" y="800"/>
      <point x="-29" y="851"/>
      <point x="-18" y="920" type="curve" smooth="yes"/>
      <point x="-13" y="955" type="line"/>
      <point x="-98" y="955" type="line"/>
      <point x="-102" y="928" type="line" smooth="yes"/>
      <point x="-105" y="911"/>
      <point x="-118" y="900"/>
      <point x="-136" y="900" type="curve" smooth="yes"/>
      <point x="-176" y="900"/>
      <point x="-177" y="960"/>
      <point x="-262" y="960" type="curve" smooth="yes"/>
      <point x="-328" y="960"/>
      <point x="-380" y="909"/>
      <point x="-391" y="840" type="curve" smooth="yes"/>
      <point x="-397" y="805" type="line"/>
      <point x="-312" y="805" type="line"/>
      <point x="-308" y="827" type="line" smooth="yes"/>
      <point x="-305" y="847"/>
      <point x="-291" y="860"/>
      <point x="-273" y="860" type="curve" smooth="yes"/>
      <point x="-233" y="860"/>
      <point x="-232" y="800"/>
    </contour>
  </outline>
</glyph>
<glyph name="two.half" format="2">
  <advance width="400"/>
  <outline>
    <contour>
      <point x="15" y="0" type="line"/>
      <point x="302" y="0" type="line"/>
      <point x="314" y="78" type="line"/>
      <point x="161" y="78" type="line"/>
      <point x="231" y="110" type="line" smooth="yes"/>
      <point x="293" y="138"/>
      <point x="330" y="179"/>
      <point x="330" y="238" type="curve" smooth="yes"/>
      <point x="330" y="299"/>
      <point x="282" y="340"/>
      <point x="208" y="340" type="curve" smooth="yes"/>
      <point x="125" y="340"/>
      <point x="56" y="284"/>
      <point x="39" y="203" type="curve"/>
      <point x="125" y="203" type="line"/>
      <point x="131" y="237"/>
      <point x="159" y="261"/>
      <point x="195" y="261" type="curve" smooth="yes"/>
      <point x="223" y="261"/>
      <point x="242" y="246"/>
      <point x="242" y="223" type="curve" smooth="yes"/>
      <point x="242" y="202"/>
      <point x="227" y="180"/>
      <point x="203" y="168" type="curve" smooth="yes"/>
      <point x="28" y="82" type="line"/>
    </contour>
  </outline>
</glyph>
<glyph name="warningSign.001" format="2">
  <advance width="600"/>
  <outline>
    <contour>
      <point x="59" y="0" type="curve" smooth="yes"/>
      <point x="541" y="0" type="line" smooth="yes"/>
      <point x="585" y="0"/>
      <point x="610" y="20"/>
      <point x="610" y="56" type="curve" smooth="yes"/>
      <point x="610" y="71"/>
      <point x="603" y="98"/>
      <point x="590" y="128" type="curve" smooth="yes"/>
      <point x="349" y="702" type="line" smooth="yes"/>
      <point x="338" y="728"/>
      <point x="320" y="740"/>
      <point x="300" y="740" type="curve" smooth="yes"/>
      <point x="280" y="740"/>
      <point x="262" y="728"/>
      <point x="251" y="702" type="curve" smooth="yes"/>
      <point x="9" y="128" type="line" smooth="yes"/>
      <point x="-3" y="99"/>
      <point x="-10" y="73"/>
      <point x="-10" y="56" type="curve" smooth="yes"/>
      <point x="-10" y="20"/>
      <point x="15" y="0"/>
    </contour>
    <contour>
      <point x="299" y="61" type="curve" smooth="yes"/>
      <point x="271" y="61"/>
      <point x="255" y="76"/>
      <point x="255" y="103" type="curve" smooth="yes"/>
      <point x="255" y="130"/>
      <point x="271" y="145"/>
      <point x="299" y="145" type="curve" smooth="yes"/>
      <point x="327" y="145"/>
      <point x="343" y="130"/>
      <point x="343" y="103" type="curve" smooth="yes"/>
      <point x="343" y="76"/>
      <point x="327" y="61"/>
    </contour>
    <contour>
      <point x="275" y="200" type="line"/>
      <point x="266" y="479" type="line"/>
      <point x="266" y="550" type="line"/>
      <point x="334" y="550" type="line"/>
      <point x="334" y="479" type="line"/>
      <point x="324" y="200" type="line"/>
    </contour>
  </outline>
</glyph>
